<?xml version="1.0" encoding="iso-8859-1"?>
<!-- Generator: Adobe Illustrator 19.0.0, SVG Export Plug-In . SVG Version: 6.00 Build 0)  -->
<svg version="1.1" id="Layer_1" xmlns="http://www.w3.org/2000/svg" xmlns:xlink="http://www.w3.org/1999/xlink" x="0px" y="0px"
	 viewBox="0 0 512 512" style="enable-background:new 0 0 512 512;" xml:space="preserve">
<g>
	<g>
		<path d="M317.568,189.372L274.313,71.134c-1.527-4.361-3.977-7.834-7.313-10.351c-6.741-4.975-15.804-4.736-22.238,0.034
			c-3.285,2.475-5.734,5.948-7.236,10.214L194.628,188.86c-2.389,5.487-1.314,9.813,0.026,12.484
			c1.775,3.541,4.659,6.059,8.26,7.253l4.54,0.777c2.313,0,4.548-0.589,6.613-1.715c3.362-1.801,5.914-4.702,7.484-8.653
			l12.698-34.79h43.477l12.621,35.046c1.434,3.575,3.84,6.426,8.004,8.772c1.877,0.785,3.823,1.186,5.803,1.186l4.659-0.759
			c3.729-1.237,6.673-3.849,8.303-7.364C318.763,197.538,318.95,193.57,317.568,189.372z M244.284,136.704l11.674-31.915
			l11.597,31.915H244.284z"/>
	</g>
</g>
<g>
	<g>
		<path d="M183.834,378.641c-2.125-3.063-4.625-5.837-7.484-8.294c1.528-1.826,2.85-3.763,3.977-5.811
			c3.49-5.914,5.265-12.672,5.265-20.087c0-11.187-3.584-20.89-10.675-28.851c-7.91-8.815-18.423-13.278-31.275-13.278h-38.767
			c-7.936,0-14.626,2.884-19.379,8.388c-4.087,4.787-6.161,10.675-6.161,17.502v94.788c0,6.716,2.074,12.552,6.212,17.399
			c4.71,5.436,11.401,8.329,19.328,8.329h41.378c14.029,0,25.438-4.821,33.911-14.336c7.535-8.414,11.366-18.765,11.366-30.763
			C191.531,394.189,188.902,385.741,183.834,378.641z M106.556,330.044l0.239-0.009h35.789v-0.009c6.212,0,9.003,2.338,10.675,4.25
			c2.441,2.654,3.576,5.837,3.576,10.001c0,3.977-1.161,7.125-3.703,9.975c-2.577,2.91-5.922,4.275-10.547,4.275h-34.876
			L106.556,330.044z M158.532,415.881c-3.063,3.516-7.014,5.137-12.45,5.137l-37.999,1.271v-36.241h37.12
			c5.649,0,9.813,1.673,13.09,5.274c3.021,3.328,4.489,7.347,4.489,12.297C162.782,408.627,161.408,412.629,158.532,415.881z"/>
	</g>
</g>
<g>
	<g>
		<path d="M436.821,392.823c-2.133-3.302-5.359-5.487-9.173-6.298l-3.499-0.41c-2.466,0-4.813,0.597-7.211,1.911
			c-3.635,2.116-6.084,5.7-6.878,9.873c-2.074,9.651-5.888,16.64-11.264,20.71c-4.779,3.575-11.366,5.376-19.601,5.376
			c-10.846,0-19.191-3.584-25.472-10.974c-7.151-8.414-10.778-21.026-10.778-37.487c0-16.034,3.652-28.561,10.752-37.129
			c6.554-7.637,14.891-11.349,25.498-11.349c8.183,0,14.916,1.801,20.002,5.359c5.402,3.772,8.772,9.421,10.266,16.998
			c0.964,5.76,4.053,8.9,6.263,10.377c2.313,1.638,5.009,2.509,7.799,2.509l3.277-0.401c3.678-0.862,6.716-2.884,8.926-6.05
			c2.125-3.209,2.978-6.929,2.372-11.128c-2.466-13.141-8.311-23.834-17.459-31.872c-10.487-8.951-24.422-13.5-41.438-13.5
			c-19.354,0-35.226,7.253-47.147,21.504c-11.844,13.926-17.86,32.333-17.86,54.682c0,22.835,6.025,41.378,17.826,55.014
			c11.861,14.029,27.725,21.154,47.172,21.154c17.041,0,31.002-4.915,41.464-14.541c8.764-7.962,14.839-18.773,18.065-32.239
			C440.013,399.249,438.374,395.179,436.821,392.823z"/>
	</g>
</g>
<g>
	<g>
		<path d="M486.4,243.2h-96V25.6c0-14.14-11.46-25.6-25.6-25.6H147.2c-14.14,0-25.6,11.46-25.6,25.6v217.6h-96
			C11.46,243.2,0,254.66,0,268.8v217.6C0,500.54,11.46,512,25.6,512h460.8c14.14,0,25.6-11.46,25.6-25.6V268.8
			C512,254.66,500.54,243.2,486.4,243.2z M243.2,486.4H25.6V268.8h121.6h96V486.4z M147.2,243.2V25.6h217.6v217.6h-96h-25.6H147.2z
			 M486.4,486.4H268.8V268.8h96h121.6V486.4z"/>
	</g>
</g>
<g>
</g>
<g>
</g>
<g>
</g>
<g>
</g>
<g>
</g>
<g>
</g>
<g>
</g>
<g>
</g>
<g>
</g>
<g>
</g>
<g>
</g>
<g>
</g>
<g>
</g>
<g>
</g>
<g>
</g>
</svg>
