<?xml version="1.0" encoding="iso-8859-1"?>
<!-- Generator: Adobe Illustrator 19.0.0, SVG Export Plug-In . SVG Version: 6.00 Build 0)  -->
<svg version="1.1" id="Layer_1" xmlns="http://www.w3.org/2000/svg" xmlns:xlink="http://www.w3.org/1999/xlink" x="0px" y="0px"
	 viewBox="0 0 512 512" style="enable-background:new 0 0 512 512;" xml:space="preserve">
<g>
	<g>
		<path d="M224.653,23.472l-1.109-7.758c-10.65,1.521-26.185,6.3-35.463,15.703c-9.279-9.403-24.813-14.181-35.463-15.703
			l-2.216,15.517c6.304,0.901,29.842,6.656,29.842,18.364h15.673c0-5.186,4.472-9.757,13.292-13.59
			c8.089-3.514,16.479-4.765,16.563-4.776L224.653,23.472z"/>
	</g>
</g>
<g>
	<g>
		<path d="M308.245,75.717l-1.109-7.758c-10.65,1.521-26.185,6.3-35.463,15.703c-9.279-9.403-24.813-14.181-35.463-15.703
			l-2.216,15.517c6.304,0.901,29.842,6.656,29.842,18.364h15.673c0-5.186,4.472-9.757,13.292-13.59
			c8.089-3.514,16.479-4.765,16.563-4.776L308.245,75.717z"/>
	</g>
</g>
<g>
	<g>
		<rect x="26.122" y="459.715" width="20.898" height="15.673"/>
	</g>
</g>
<g>
	<g>
		<rect x="67.918" y="417.919" width="20.898" height="15.673"/>
	</g>
</g>
<g>
	<g>
		<rect x="67.918" y="480.613" width="20.898" height="15.673"/>
	</g>
</g>
<g>
	<g>
		<rect x="130.612" y="470.164" width="20.898" height="15.673"/>
	</g>
</g>
<g>
	<g>
		<rect x="203.755" y="480.613" width="20.898" height="15.673"/>
	</g>
</g>
<g>
	<g>
		<rect x="203.755" y="428.368" width="20.898" height="15.673"/>
	</g>
</g>
<g>
	<g>
		<rect x="266.449" y="417.919" width="20.898" height="15.673"/>
	</g>
</g>
<g>
	<g>
		<rect x="339.592" y="449.266" width="20.898" height="15.673"/>
	</g>
</g>
<g>
	<g>
		<rect x="287.347" y="480.613" width="20.898" height="15.673"/>
	</g>
</g>
<g>
	<g>
		<rect x="391.837" y="417.919" width="20.898" height="15.673"/>
	</g>
</g>
<g>
	<g>
		<rect x="391.837" y="480.613" width="20.898" height="15.673"/>
	</g>
</g>
<g>
	<g>
		<rect x="464.98" y="449.266" width="20.898" height="15.673"/>
	</g>
</g>
<g>
	<g>
		<rect x="219.429" y="318.654" width="47.02" height="15.673"/>
	</g>
</g>
<g>
	<g>
		<rect x="276.898" y="318.654" width="20.898" height="15.673"/>
	</g>
</g>
<g>
	<g>
		<rect x="20.898" y="339.552" width="47.02" height="15.673"/>
	</g>
</g>
<g>
	<g>
		<rect x="78.367" y="339.552" width="20.898" height="15.673"/>
	</g>
</g>
<g>
	<g>
		<rect x="407.51" y="339.552" width="47.02" height="15.673"/>
	</g>
</g>
<g>
	<g>
		<rect x="376.163" y="339.552" width="20.898" height="15.673"/>
	</g>
</g>
<g>
	<g>
		<path d="M512,287.309v-15.673H154.122v-57.469h99.265v-7.837c0-59.057-48.045-107.102-107.102-107.102
			S39.184,147.273,39.184,206.329v7.837h99.265v57.469H0v15.673h138.449v88.816H0v15.674h138.449v31.347h-23.51v15.673h62.694
			v-15.673h-23.51v-31.347H512v-15.674H154.122v-88.816H512z M237.382,198.492h-46.891c-1.768-38.054-16.039-66.042-26.755-81.921
			C203.332,124.256,233.891,157.573,237.382,198.492z M55.189,198.492c3.499-41.011,34.189-74.38,73.914-81.966
			c-12.07,17.268-29.727,47.89-32.165,81.966H55.189z M112.666,198.492c2.868-34.181,23.526-65.466,33.763-79.066
			c9.151,12.074,26.295,39.7,28.364,79.066H112.666z"/>
	</g>
</g>
<g>
	<g>
		<path d="M412.735,73.105c-38.891,0-70.531,31.64-70.531,70.531s31.639,70.531,70.531,70.531s70.531-31.639,70.531-70.531
			S451.626,73.105,412.735,73.105z M412.735,198.492c-30.248,0-54.857-24.608-54.857-54.857c0-30.249,24.609-54.857,54.857-54.857
			c30.248,0,54.857,24.608,54.857,54.857C467.592,173.884,442.982,198.492,412.735,198.492z"/>
	</g>
</g>
<g>
</g>
<g>
</g>
<g>
</g>
<g>
</g>
<g>
</g>
<g>
</g>
<g>
</g>
<g>
</g>
<g>
</g>
<g>
</g>
<g>
</g>
<g>
</g>
<g>
</g>
<g>
</g>
<g>
</g>
</svg>
