<?xml version="1.0" encoding="iso-8859-1"?>
<!-- Generator: Adobe Illustrator 18.0.0, SVG Export Plug-In . SVG Version: 6.00 Build 0)  -->
<!DOCTYPE svg PUBLIC "-//W3C//DTD SVG 1.1//EN" "http://www.w3.org/Graphics/SVG/1.1/DTD/svg11.dtd">
<svg version="1.1" id="Capa_1" xmlns="http://www.w3.org/2000/svg" xmlns:xlink="http://www.w3.org/1999/xlink" x="0px" y="0px"
	 viewBox="0 0 55.098 55.098" style="enable-background:new 0 0 55.098 55.098;" xml:space="preserve">
<g>
	<path d="M29,33.596c-1.654,0-3,1.346-3,3h2c0-0.552,0.449-1,1-1s1,0.448,1,1h2C32,34.942,30.654,33.596,29,33.596z"/>
	<path d="M37,34.596c-1.654,0-3,1.346-3,3h2c0-0.552,0.449-1,1-1s1,0.448,1,1h2C40,35.942,38.654,34.596,37,34.596z"/>
	<path d="M44.515,30.794l3.451-12.94C47.989,17.77,48,17.683,48,17.596c0-1.103-0.897-2-2-2h-2c-0.365,0-0.705,0.104-1,0.275V1.596
		c0-0.553-0.448-1-1-1H11.006c-0.552,0-1,0.447-1,1v49c0,0.553,0.448,1,1,1H26.32c2.898,1.83,6.318,2.906,9.992,2.906
		c10.358,0,18.786-8.427,18.786-18.785v-0.104C55.098,32.628,48.924,31.336,44.515,30.794z M44,17.596h1.965l-3.681,13.805
		c0,0.001,0,0.002,0,0.002c0,0.002-0.001,0.003-0.001,0.003l-0.596,2.289c-0.139,0.534,0.181,1.08,0.716,1.22
		c0.084,0.021,0.169,0.032,0.252,0.032c0.444,0,0.85-0.298,0.967-0.748l0.377-1.448c6.826,0.805,9.099,2.385,9.099,2.863
		c0,0.984-5.711,3.293-16.786,3.293c-11.075,0-16.786-2.309-16.786-3.293c0-0.985,5.711-3.294,16.786-3.294
		c0.592,0,1.159,0.023,1.735,0.038l-0.187,0.744c-0.135,0.536,0.19,1.079,0.726,1.214c0.082,0.021,0.164,0.03,0.245,0.03
		c0.447,0,0.854-0.303,0.969-0.756l0.49-1.946h0l3.677-13.79C43.989,17.77,44,17.683,44,17.596z M35.342,15.824H39v3.658
		c0,2.95-2.392,5.342-5.342,5.342H30v-3.658C30,18.215,32.392,15.824,35.342,15.824z M23.406,10.183l2.587-2.587l2.587,2.587
		c2.086,2.086,2.086,5.468,0,7.554l-2.587,2.587l-2.587-2.587C21.319,15.651,21.319,12.269,23.406,10.183z M14,19.482v-3.658h3.658
		c2.95,0,5.342,2.391,5.342,5.342v3.658h-3.658C16.392,24.824,14,22.432,14,19.482z M36.312,52.502
		c-3.418,0-6.597-1.032-9.252-2.793c-0.127-0.084-0.249-0.174-0.373-0.261c-0.286-0.201-0.567-0.41-0.84-0.628
		c-0.099-0.079-0.201-0.156-0.298-0.238c-0.356-0.298-0.7-0.61-1.029-0.936c-0.061-0.061-0.12-0.123-0.18-0.185
		c-0.325-0.331-0.639-0.672-0.935-1.029c-0.018-0.021-0.037-0.042-0.054-0.063c-0.32-0.389-0.621-0.793-0.905-1.21
		c-0.034-0.05-0.068-0.101-0.101-0.152c-0.555-0.832-1.036-1.716-1.438-2.643c-0.033-0.077-0.067-0.154-0.099-0.231
		c-0.188-0.451-0.359-0.912-0.507-1.382c-0.019-0.059-0.034-0.12-0.052-0.179c-0.13-0.427-0.241-0.863-0.336-1.304
		c-0.019-0.088-0.041-0.175-0.059-0.264c-0.046-0.229-0.07-0.464-0.107-0.696c3.84,1.994,11.774,2.597,16.564,2.597
		c4.791,0,12.724-0.603,16.564-2.597C51.624,46.335,44.685,52.502,36.312,52.502z"/>
	<path d="M7.976,0.596H1c-0.552,0-1,0.447-1,1v46c0,0.399,0.238,0.761,0.605,0.919l6.976,3c0.126,0.054,0.261,0.081,0.395,0.081
		c0.192,0,0.384-0.056,0.55-0.165c0.281-0.185,0.45-0.499,0.45-0.835v-49C8.976,1.043,8.528,0.596,7.976,0.596z"/>
</g>
<g>
</g>
<g>
</g>
<g>
</g>
<g>
</g>
<g>
</g>
<g>
</g>
<g>
</g>
<g>
</g>
<g>
</g>
<g>
</g>
<g>
</g>
<g>
</g>
<g>
</g>
<g>
</g>
<g>
</g>
</svg>
