<?xml version="1.0" encoding="iso-8859-1"?>
<!-- Uploaded to: SVG Repo, www.svgrepo.com, Generator: SVG Repo Mixer Tools -->
<svg fill="#000000" height="800px" width="800px" version="1.1" id="Layer_1" xmlns="http://www.w3.org/2000/svg" xmlns:xlink="http://www.w3.org/1999/xlink" 
	 viewBox="0 0 512 512" xml:space="preserve">
<g>
	<g>
		<path d="M405.081,2.679c-3.571-3.571-9.357-3.571-12.929,0l-43.036,43.036H63.215L20.179,2.679c-3.571-3.571-9.357-3.571-12.928,0
			c-3.571,3.571-3.571,9.357,0,12.928l43.036,43.036v124.214v109.714v173.714c0,5.054,4.089,9.143,9.143,9.143h146.286
			c5.054,0,9.143-4.089,9.143-9.143c0-5.053-4.089-9.143-9.143-9.143H68.572V299.5l274.286-77.143v42.786
			c0,5.053,4.089,9.143,9.143,9.143c5.054,0,9.143-4.089,9.143-9.143v-54.857V100.571V59.545l43.938-43.938
			C408.652,12.036,408.652,6.25,405.081,2.679z M342.858,203.357L68.572,280.5v-90.714l274.286-77.143V203.357z M342.858,93.643
			L68.572,170.786V64h274.286V93.643z"/>
	</g>
</g>
<g>
	<g>
		<path d="M470.858,365.714h-256c-5.053,0-9.143,4.089-9.143,9.143c0,75.625,61.518,137.143,137.143,137.143
			S480,450.482,480,374.857C480,369.804,475.911,365.714,470.858,365.714z M342.858,493.714
			c-62.464,0-113.822-48.429-118.509-109.714h237.018C456.679,445.286,405.322,493.714,342.858,493.714z"/>
	</g>
</g>
<g>
	<g>
		<path d="M501.179,201.616c-4.821-1.616-9.973,0.991-11.563,5.777l-45.714,137.143c-1.598,4.794,0.991,9.973,5.777,11.563
			c0.964,0.321,1.937,0.473,2.893,0.473c3.83,0,7.393-2.42,8.67-6.25l45.714-137.143
			C508.554,208.384,505.965,203.205,501.179,201.616z"/>
	</g>
</g>
<g>
	<g>
		<path d="M269.715,320c-10.08,0-18.286,8.205-18.286,18.286c0,10.081,8.205,18.286,18.286,18.286
			c10.081,0,18.286-8.205,18.286-18.286C288,328.205,279.795,320,269.715,320z"/>
	</g>
</g>
<g>
	<g>
		<path d="M324.572,320c-10.081,0-18.286,8.205-18.286,18.286c0,10.081,8.205,18.286,18.286,18.286
			c10.08,0,18.286-8.205,18.286-18.286C342.858,328.205,334.652,320,324.572,320z"/>
	</g>
</g>
<g>
	<g>
		<path d="M361.143,292.571c-10.08,0-18.286,8.205-18.286,18.286c0,10.08,8.205,18.286,18.286,18.286s18.286-8.205,18.286-18.286
			C379.429,300.777,371.224,292.571,361.143,292.571z"/>
	</g>
</g>
<g>
	<g>
		<path d="M406.858,320c-10.08,0-18.286,8.205-18.286,18.286c0,10.081,8.205,18.286,18.286,18.286s18.286-8.205,18.286-18.286
			C425.143,328.205,416.938,320,406.858,320z"/>
	</g>
</g>
</svg>