<?xml version="1.0" encoding="iso-8859-1"?>
<!-- Generator: Adobe Illustrator 19.0.0, SVG Export Plug-In . SVG Version: 6.00 Build 0)  -->
<svg version="1.1" id="Layer_1" xmlns="http://www.w3.org/2000/svg" xmlns:xlink="http://www.w3.org/1999/xlink" x="0px" y="0px"
	 viewBox="0 0 512 512" style="enable-background:new 0 0 512 512;" xml:space="preserve">
<g>
	<g>
		<path d="M149.168,383.879c-4.08-4.08-10.697-4.08-14.778,0l-0.097,0.097c-4.08,4.08-4.08,10.697,0,14.778
			c2.041,2.041,4.715,3.06,7.388,3.06s5.349-1.02,7.388-3.06l0.097-0.097C153.248,394.576,153.248,387.96,149.168,383.879z"/>
	</g>
</g>
<g>
	<g>
		<path d="M387.404,383.879c-4.08-4.08-10.697-4.08-14.778,0l-0.097,0.097c-4.08,4.08-4.08,10.697,0,14.778
			c2.041,2.041,4.715,3.06,7.388,3.06s5.349-1.02,7.388-3.06l0.097-0.097C391.485,394.576,391.485,387.96,387.404,383.879z"/>
	</g>
</g>
<g>
	<g>
		<path d="M501.551,125.38c-25.27,0-48.079,0.87-68.985,2.458V58.506c0-5.771-4.678-10.449-10.449-10.449H89.883
			c-5.771,0-10.449,4.678-10.449,10.449v140.991c-19.955,0.768-42.618,1.131-68.985,1.131C4.678,200.628,0,205.306,0,211.077
			v242.416c0,5.771,4.678,10.449,10.449,10.449h491.102c5.771,0,10.449-4.678,10.449-10.449V135.829
			C512,130.058,507.322,125.38,501.551,125.38z M100.332,164.056h112.167c5.771,0,10.449-4.678,10.449-10.449
			c0-5.771-4.678-10.449-10.449-10.449H100.332v-27.145h230.545c5.771,0,10.449-4.678,10.449-10.449s-4.678-10.449-10.449-10.449
			H100.332V68.955h311.336v60.769c-65.463,6.88-111.812,21.188-159.077,37.501c-51.183,17.666-85.827,27.321-152.258,31.259V164.056
			z M104.781,443.044L104.781,443.044l20.387-20.387c4.08-4.08,4.08-10.697,0-14.777s-10.697-4.08-14.777,0l-35.163,35.164h-9.4
			V376.01h130.438l-67.033,67.033H104.781z M207.935,443.045h-49.147v-0.001l49.147-49.146V443.045z M343.018,443.044
			L343.018,443.044l20.387-20.387c4.08-4.08,4.08-10.697,0-14.777s-10.697-4.08-14.777,0l-35.163,35.164h-9.4V376.01h130.438
			l-67.033,67.033H343.018z M446.171,443.045h-49.147v-0.001l49.147-49.146V443.045z M491.102,443.043h-24.033v-77.482
			c0-5.771-4.678-10.449-10.449-10.449H293.616c-5.771,0-10.449,4.678-10.449,10.449v77.482h-54.335v-77.482
			c0-5.771-4.678-10.449-10.449-10.449H55.38c-5.771,0-10.449,4.678-10.449,10.449v77.482H20.898V308.412h470.204V443.043z
			 M491.102,194.358H341.831c-5.771,0-10.449,4.678-10.449,10.449c0,5.771,4.678,10.449,10.449,10.449h149.271v20.964H341.831
			c-5.771,0-10.449,4.678-10.449,10.449c0,5.771,4.678,10.449,10.449,10.449h149.271v30.396H20.898v-66.007
			c127.717-0.485,167.765-10.107,238.512-34.526c75.585-26.089,133.146-39.766,231.693-40.657V194.358z"/>
	</g>
</g>
<g>
	<g>
		<path d="M364.818,95.113h-0.137c-5.771,0-10.449,4.678-10.449,10.449c0,5.771,4.678,10.449,10.449,10.449h0.137
			c5.771,0,10.449-4.678,10.449-10.449C375.267,99.791,370.589,95.113,364.818,95.113z"/>
	</g>
</g>
<g>
	<g>
		<path d="M308.028,194.359h-0.137c-5.771,0-10.449,4.678-10.449,10.449c0,5.771,4.678,10.449,10.449,10.449h0.137
			c5.771,0,10.449-4.678,10.449-10.449C318.477,199.037,313.797,194.359,308.028,194.359z"/>
	</g>
</g>
<g>
	<g>
		<path d="M308.028,236.22h-0.137c-5.771,0-10.449,4.678-10.449,10.449c0,5.771,4.678,10.449,10.449,10.449h0.137
			c5.771,0,10.449-4.678,10.449-10.449C318.477,240.898,313.797,236.22,308.028,236.22z"/>
	</g>
</g>
<g>
	<g>
		<path d="M246.44,143.157h-0.137c-5.771,0-10.449,4.678-10.449,10.449c0,5.771,4.678,10.449,10.449,10.449h0.137
			c5.771,0,10.449-4.678,10.449-10.449C256.889,147.835,252.211,143.157,246.44,143.157z"/>
	</g>
</g>
<g>
</g>
<g>
</g>
<g>
</g>
<g>
</g>
<g>
</g>
<g>
</g>
<g>
</g>
<g>
</g>
<g>
</g>
<g>
</g>
<g>
</g>
<g>
</g>
<g>
</g>
<g>
</g>
<g>
</g>
</svg>
