<?xml version="1.0" encoding="iso-8859-1"?>
<!-- Uploaded to: SVG Repo, www.svgrepo.com, Generator: SVG Repo Mixer Tools -->
<svg fill="#000000" height="800px" width="800px" version="1.1" id="Layer_1" xmlns="http://www.w3.org/2000/svg" xmlns:xlink="http://www.w3.org/1999/xlink" 
	 viewBox="0 0 512 512" xml:space="preserve">
<g>
	<g>
		<path d="M106.564,43.091H75.829c-4.348,0-7.873,3.524-7.873,7.873c0,4.348,3.525,7.873,7.873,7.873h30.735
			c4.348,0,7.873-3.525,7.873-7.873C114.437,46.616,110.912,43.091,106.564,43.091z"/>
	</g>
</g>
<g>
	<g>
		<path d="M133.127,24.402L111.032,2.306c-3.075-3.075-8.06-3.075-11.134,0c-3.075,3.075-3.075,8.06,0,11.134l22.095,22.096
			c1.537,1.538,3.552,2.306,5.567,2.306c2.015,0,4.03-0.768,5.567-2.306C136.202,32.461,136.202,27.477,133.127,24.402z"/>
	</g>
</g>
<g>
	<g>
		<path d="M133.128,66.394c-3.075-3.075-8.06-3.075-11.134,0L99.897,88.488c-3.075,3.075-3.075,8.06,0,11.134
			c1.537,1.538,3.552,2.306,5.567,2.306c2.015,0,4.03-0.767,5.568-2.305l22.096-22.096
			C136.203,74.453,136.203,69.468,133.128,66.394z"/>
	</g>
</g>
<g>
	<g>
		<path d="M371.93,302.402H237.306c-4.348,0-7.873,3.525-7.873,7.873s3.525,7.873,7.873,7.873H371.93
			c4.348,0,7.873-3.525,7.873-7.873S376.278,302.402,371.93,302.402z"/>
	</g>
</g>
<g>
	<g>
		<path d="M411.905,69.599l-6.826-10.169c-2.423-3.61-7.315-4.573-10.925-2.15c-3.61,2.424-4.573,7.315-2.149,10.925l6.825,10.169
			c3.205,4.774,3.502,10.654,0.797,15.728c-2.705,5.074-7.754,8.103-13.503,8.103h-26.124c-15.725,0-28.757,11.748-30.778,26.93
			h-39.303V80.042c0-4.348-3.525-7.873-7.873-7.873H264.85h-36.898h-13.129v-1.036V30.798v-1.037h143.219
			c5.109,0,9.86,2.532,12.707,6.775l3.371,5.021c2.423,3.61,7.315,4.573,10.925,2.149s4.572-7.315,2.149-10.925l-3.37-5.021
			c-5.777-8.607-15.415-13.746-25.782-13.746H206.949c-4.348,0-7.873,3.525-7.873,7.873v1.037h-28.769
			c-4.348,0-7.873,3.525-7.873,7.873v40.334c0,4.348,3.525,7.873,7.873,7.873h28.769v1.036c0,4.348,3.525,7.873,7.873,7.873h6.569
			c-7.023,9.582-17.009,19.939-29.306,24.016c-6.188,2.052-11.208,6.391-14.132,12.218c-2.925,5.827-3.406,12.444-1.353,18.633
			c3.318,10.008,12.628,16.732,23.166,16.732c2.61,0,5.196-0.419,7.684-1.246c19.186-6.362,36.485-19.464,51.419-38.942
			c9.286-12.114,15.544-24.063,18.968-31.412h4.212v41.223h-15.9c-4.348,0-7.873,3.525-7.873,7.873v33.309h-6.576
			c-3.43,0-6.465,2.219-7.503,5.488l-41.325,129.988l-12.153,10.626c-14.523,12.698-20.726,32.234-16.189,50.983l9.864,40.767
			c0.872,3.605,4.094,6.024,7.647,6.024c0.612,0.001,1.236-0.071,1.857-0.222c4.226-1.024,6.824-5.277,5.801-9.505l-9.864-40.768
			c-3.153-13.028,1.158-26.602,11.25-35.425l13.808-12.074c1.082-0.947,1.884-2.171,2.32-3.542l40.247-126.595h8.69h92.687h8.69
			l13.044,41.027c1.317,4.145,5.745,6.435,9.889,5.118c4.144-1.318,6.435-5.745,5.118-9.889l-14.788-46.515
			c-1.039-3.268-4.074-5.488-7.503-5.488h-6.576v-33.309c0-4.348-3.525-7.873-7.873-7.873h-5.684
			c1.806-6.44,7.714-11.183,14.723-11.183h26.124c11.493,0,21.991-6.3,27.398-16.441C418.93,91.369,418.311,79.141,411.905,69.599z
			 M199.075,63.259h-20.896V38.672h20.896V63.259z M238.499,109.746c-12.98,16.929-27.742,28.226-43.881,33.577
			c-0.888,0.295-1.806,0.444-2.726,0.444c-3.738,0-7.041-2.387-8.22-5.941c-0.729-2.196-0.557-4.544,0.481-6.613
			c1.038-2.068,2.82-3.608,5.016-4.337c19.853-6.583,34.205-24.056,43.287-38.963h19.942
			C249.126,94.131,244.514,101.9,238.499,109.746z M343.089,170.319h-76.94v-25.435h15.899h54.778h6.263V170.319z"/>
	</g>
</g>
<g>
	<g>
		<path d="M426.394,316.422l-12.153-10.627l-16.526-51.98c-1.318-4.144-5.742-6.434-9.889-5.118
			c-4.143,1.318-6.435,5.745-5.118,9.889l17.191,54.075c0.436,1.37,1.239,2.595,2.32,3.542l13.808,12.074
			c10.091,8.823,14.401,22.397,11.25,35.425l-32.069,132.551h-181.18l-14.587-60.29c-1.023-4.226-5.278-6.824-9.504-5.801
			c-4.226,1.024-6.824,5.277-5.801,9.505l16.043,66.312c0.856,3.534,4.018,6.022,7.653,6.022h193.571
			c3.635,0,6.798-2.489,7.653-6.022l33.526-138.574C447.119,348.655,440.916,329.119,426.394,316.422z"/>
	</g>
</g>
</svg>