<?xml version="1.0" encoding="iso-8859-1"?>
<!-- Uploaded to: SVG Repo, www.svgrepo.com, Generator: SVG Repo Mixer Tools -->
<svg fill="#000000" height="800px" width="800px" version="1.1" id="Layer_1" xmlns="http://www.w3.org/2000/svg" xmlns:xlink="http://www.w3.org/1999/xlink" 
	 viewBox="0 0 512.003 512.003" xml:space="preserve">
<g>
	<g>
		<g>
			<path d="M510.176,208.063L417.995,90.742c-1.852-10.561-16.932-27.641-80.671-47.082l-23.109-23.109l-2.069-4.158
				C307.076,6.289,296.913,0,285.606,0h-59.196c-11.324,0-21.495,6.298-26.539,16.427l-2.058,4.124l-23.11,23.11
				c-63.66,19.417-78.781,36.479-80.664,47.042L1.828,208.063c-1.442,1.835-2.065,4.181-1.741,6.485
				c0.333,2.304,1.587,4.378,3.49,5.734L63.31,262.95c1.476,1.05,3.209,1.587,4.958,1.587c1.357,0,2.714-0.324,3.959-0.973
				l47.265-24.756V503.47c0,4.71,3.814,8.533,8.533,8.533h255.974c4.719,0,8.533-3.823,8.533-8.533l-0.007-264.654l47.248,24.747
				c1.246,0.649,2.603,0.973,3.959,0.973c1.741,0,3.482-0.538,4.958-1.587l59.733-42.667c1.903-1.357,3.157-3.43,3.49-5.734
				C512.241,212.245,511.618,209.898,510.176,208.063z M309.838,40.306l13.048,13.048L302.559,107.6l-19.319-9.663L309.838,40.306z
				 M215.138,24.047c2.15-4.309,6.46-6.98,11.273-6.98h59.196c4.804,0,9.122,2.671,11.273,6.963l0.853,1.715l-33.297,72.201
				c-0.017,0.033-0.038,0.063-0.055,0.097c-0.081,0.161-0.145,0.325-0.215,0.488l-5.705,12.371l-2.432,5.269l-41.736-90.426
				L215.138,24.047z M202.204,40.292l26.602,57.637l-19.336,9.671l-20.327-54.247L202.204,40.292z M68.96,246.011l-48.196-34.424
				l83.596-106.399c9.241,9.926,14.447,38.192,15.134,56.948v57.402L68.96,246.011z M136.56,494.937l-0.007-269.926
				c0.007-0.182,0.005-0.364,0-0.546l-0.002-62.626c-0.341-9.839-3.021-54.844-22.963-71.305
				c5.151-5.296,19.788-15.869,60.468-28.795l22.75,60.726c0.853,2.261,2.62,4.062,4.881,4.949c0.998,0.393,2.057,0.589,3.115,0.589
				c1.306,0,2.62-0.299,3.814-0.896l27.345-13.676l12.312,26.677c0.721,1.56,1.878,2.821,3.282,3.684
				c1.32,0.814,2.857,1.277,4.471,1.277c1.502,0,2.931-0.412,4.186-1.122c1.532-0.864,2.801-2.179,3.565-3.839l3.911-8.478
				l8.395-18.19l27.328,13.667c1.195,0.597,2.509,0.896,3.814,0.896c1.058,0,2.116-0.196,3.115-0.589
				c2.261-0.887,4.028-2.688,4.881-4.949l22.75-60.726c40.679,12.926,55.316,23.499,60.467,28.795
				c-19.934,16.461-22.622,61.5-22.972,71.603v61.849c-0.036,0.432-0.03,0.862,0,1.29v269.66H136.56z M443.044,246.011
				l-50.517-26.463l-0.001-57.104c0.693-19.013,5.897-47.298,15.13-57.241l83.585,106.384L443.044,246.011z"/>
			<path d="M295.092,188.019c-1.63-0.179-3.277-0.282-4.958-0.282c-13.943,0-26.342,6.716-34.133,17.092
				c-7.791-10.377-20.19-17.092-34.133-17.092c-1.681,0-3.328,0.102-4.966,0.29c-12.979,1.502-24.09,9.66-29.713,21.811
				c-5.922,12.783-4.787,27.947,2.953,39.561c0.162,0.239,0.333,0.478,0.529,0.7l58.76,71.074c1.613,1.963,4.028,3.098,6.571,3.098
				c2.543,0,4.958-1.135,6.579-3.098l58.752-71.074c0.196-0.222,0.367-0.461,0.529-0.7c7.74-11.614,8.875-26.778,2.961-39.561
				C319.19,197.688,308.088,189.53,295.092,188.019z M307.884,239.595l-51.883,62.754l-51.883-62.754
				c-4.267-6.664-4.83-15.283-1.451-22.579c3.157-6.827,9.071-11.213,16.196-12.041c0.981-0.111,1.988-0.171,3.004-0.171
				c14.114,0,25.6,11.486,25.6,25.6c0,4.71,3.814,8.533,8.533,8.533s8.533-3.823,8.533-8.533c0-14.114,11.486-25.6,25.6-25.6
				c1.015,0,2.022,0.06,3.004,0.171c7.134,0.828,13.039,5.214,16.196,12.041C312.722,224.311,312.15,232.93,307.884,239.595z"/>
		</g>
	</g>
</g>
</svg>