<?xml version="1.0" encoding="iso-8859-1"?>
<!-- Generator: Adobe Illustrator 18.1.1, SVG Export Plug-In . SVG Version: 6.00 Build 0)  -->
<svg version="1.1" id="Capa_1" xmlns="http://www.w3.org/2000/svg" xmlns:xlink="http://www.w3.org/1999/xlink" x="0px" y="0px"
	 viewBox="0 0 16.572 16.572" style="enable-background:new 0 0 16.572 16.572;" xml:space="preserve">
<g>
	<g>
		<path style="fill:#030104;" d="M15.311,1.962c-0.866-0.867-1.206,2.439-3.454,4.688c-1.772,1.773-3.868,1.482-4.974,2.697
			c-1.105,1.213-2.233,1.139-3.449,2.355c-1.914,1.913-2.927,4.002-2.262,4.667c0.664,0.664,2.753-0.349,4.667-2.263
			c1.341-1.341,1.36-2.656,2.426-3.73c1.066-1.072,2.935-1.161,4.546-2.773C15.059,5.354,16.179,2.829,15.311,1.962z"/>
		<path style="fill:#030104;" d="M7.779,8.161c0.178,0.178,0.466,0.178,0.643,0c0.177-0.177,0.177-0.464,0-0.643l-1.22-1.22
			c-0.178-0.177-0.466-0.177-0.643,0c-0.177,0.178-0.177,0.465,0,0.643L7.779,8.161z"/>
		<path style="fill:#030104;" d="M8.233,5.663c-0.178,0.177-0.178,0.465,0,0.642l1.221,1.221c0.177,0.177,0.464,0.177,0.643,0
			c0.177-0.177,0.177-0.465,0-0.642L8.875,5.663C8.698,5.486,8.41,5.486,8.233,5.663z"/>
		<path style="fill:#030104;" d="M11.463,6.46c0.176-0.177,0.178-0.465,0-0.643l-1.221-1.22c-0.178-0.178-0.465-0.177-0.643,0
			c-0.177,0.178-0.177,0.465,0,0.643l1.22,1.22C10.998,6.637,11.286,6.637,11.463,6.46z"/>
		<path style="fill:#030104;" d="M12.727,5.114c0.178-0.178,0.178-0.466,0-0.643l-1.22-1.22c-0.178-0.178-0.466-0.177-0.643,0
			c-0.178,0.177-0.178,0.465,0,0.642l1.221,1.221C12.262,5.291,12.55,5.291,12.727,5.114z"/>
		<path style="fill:#030104;" d="M11.657,1.72c-0.178,0.177-0.178,0.465,0,0.643l1.221,1.221c0.177,0.177,0.464,0.176,0.642,0
			c0.178-0.178,0.178-0.465,0-0.643l-1.221-1.22C12.121,1.543,11.835,1.543,11.657,1.72z"/>
		<path style="fill:#030104;" d="M13.859,1.996c0.177,0.177,0.465,0.177,0.643,0c0.177-0.178,0.177-0.465,0-0.643l-1.221-1.22
			c-0.178-0.177-0.466-0.177-0.642,0c-0.178,0.177-0.178,0.465,0,0.643L13.859,1.996z"/>
		<path style="fill:#030104;" d="M7.029,5.84c0.178,0.178,0.465,0.178,0.643,0c0.177-0.177,0.177-0.465,0-0.643L7.216,4.742
			c-0.177-0.177-0.465-0.177-0.642,0c-0.178,0.177-0.178,0.465,0,0.643L7.029,5.84z"/>
		<path style="fill:#030104;" d="M8.15,4.828c0.177,0.178,0.465,0.178,0.643,0c0.177-0.177,0.177-0.465,0-0.642L8.01,3.403
			c-0.178-0.178-0.466-0.177-0.643,0c-0.178,0.177-0.178,0.465,0,0.642L8.15,4.828z"/>
		<path style="fill:#030104;" d="M9.323,3.624c0.178,0.177,0.464,0.176,0.643,0c0.177-0.178,0.178-0.465,0-0.643L9.073,2.089
			c-0.178-0.178-0.465-0.177-0.643,0s-0.178,0.465,0,0.642L9.323,3.624z"/>
		<path style="fill:#030104;" d="M10.249,2.213c0.177,0.177,0.465,0.177,0.644,0c0.176-0.177,0.176-0.465,0-0.643l-0.456-0.455
			c-0.178-0.178-0.466-0.177-0.643,0c-0.178,0.177-0.178,0.465,0,0.642L10.249,2.213z"/>
		<path style="fill:#030104;" d="M11.421,1.198c0.178,0.177,0.465,0.177,0.643,0c0.178-0.178,0.178-0.465,0-0.643l-0.346-0.346
			c-0.178-0.177-0.465-0.177-0.643,0s-0.178,0.465,0,0.642L11.421,1.198z"/>
	</g>
</g>
<g>
</g>
<g>
</g>
<g>
</g>
<g>
</g>
<g>
</g>
<g>
</g>
<g>
</g>
<g>
</g>
<g>
</g>
<g>
</g>
<g>
</g>
<g>
</g>
<g>
</g>
<g>
</g>
<g>
</g>
</svg>
