<?xml version="1.0" encoding="iso-8859-1"?>
<!-- Uploaded to: SVG Repo, www.svgrepo.com, Generator: SVG Repo Mixer Tools -->
<svg fill="#000000" height="800px" width="800px" version="1.1" id="Layer_1" xmlns="http://www.w3.org/2000/svg" xmlns:xlink="http://www.w3.org/1999/xlink" 
	 viewBox="0 0 512 512" xml:space="preserve">
<g>
	<g>
		<g>
			<ellipse cx="166.935" cy="369.199" rx="7.018" ry="7.03"/>
			<path d="M499.965,395.008c-2.336-1.537-5.227-3.388-8.62-5.475c-9.892-6.084-24.15-14.22-42.047-22.759
				c0.007-0.21,0.019-0.42,0.019-0.631v-95.389h33.259c10.464,0,18.975-8.512,18.975-18.975v-11.849
				c0-10.464-8.512-18.975-18.975-18.975h-33.259v-24.409c0-10.457-8.508-18.964-18.964-18.964h-11.797
				c-10.457,0-18.965,8.508-18.965,18.964v24.409h-33.259c-9.593,0-17.526,7.162-18.782,16.416
				c-14.709-16.107-33.727-28.384-55.603-34.983v-19.614h59.988c14.456,0,26.216-11.76,26.216-26.216v-19.56
				c0-14.456-11.76-26.216-26.216-26.216h-15.477c-4.329,0-7.837,3.508-7.837,7.837c0,4.329,3.508,7.837,7.837,7.837h15.476
				c5.813,0,10.543,4.729,10.543,10.543v19.56c0,5.813-4.729,10.543-10.543,10.543h-67.825h-56.216h-67.824
				c-5.813,0-10.543-4.729-10.543-10.543v-19.56c0-5.813,4.729-10.543,10.543-10.543h67.824h56.216h21.003
				c4.329,0,7.837-3.508,7.837-7.837c0-4.329-3.508-7.837-7.837-7.837h-13.166V65.4c0-14.456-11.76-26.216-26.216-26.216h-19.456
				c-14.455,0-26.216,11.76-26.216,26.216v45.381h-59.988c-14.455,0-26.216,11.76-26.216,26.216v19.56
				c0,14.456,11.76,26.216,26.216,26.216h59.988v19.614c-21.876,6.6-40.895,18.876-55.604,34.983
				c-1.256-9.255-9.189-16.416-18.782-16.416H112.41v-24.41c0-10.457-8.508-18.964-18.965-18.964H81.648
				c-10.457,0-18.965,8.508-18.965,18.964v24.409H29.424c-10.464,0-18.975,8.512-18.975,18.975v11.849
				c0,10.464,8.512,18.975,18.975,18.975h33.259v95.389c0,0.21,0.012,0.42,0.019,0.631c-12.395,5.914-23.044,11.635-31.707,16.616
				c-8.138,4.678-14.53,8.705-18.96,11.619C4.499,399.967,0,408.307,0,417.32v0.001v3.559v44.1c0,4.329,3.509,7.837,7.837,7.837
				h496.327c4.329,0,7.837-3.508,7.837-7.837V420.92v-3.6v-0.001C512,408.309,507.501,399.967,499.965,395.008z M246.272,54.857
				h19.457c5.813,0,10.543,4.729,10.543,10.543v45.381H235.73V65.4h-0.001C235.729,59.587,240.458,54.857,246.272,54.857z
				 M415.262,196.545h0.001c0-1.814,1.476-3.29,3.291-3.29h11.797c1.814,0,3.29,1.476,3.29,3.29v24.409h-18.38V196.545z
				 M363.029,239.929c0-1.82,1.482-3.302,3.302-3.302h41.096h34.053h41.096c1.82,0,3.302,1.482,3.302,3.302v11.849
				c0,1.82-1.482,3.302-3.302,3.302H441.48h-34.053h-41.096c-1.82,0-3.302-1.482-3.302-3.302V239.929z M433.643,270.754v88.883
				c-5.836-2.538-11.969-5.07-18.38-7.557v-81.326H433.643z M369.363,270.753h30.227v0.001v75.554
				c-6.723-2.347-13.7-4.614-20.915-6.767c0.888-6.026,1.345-12.136,1.345-18.247C380.02,303.414,376.245,286.281,369.363,270.753z
				 M291.945,218.869c43.095,15.091,72.401,55.855,72.401,102.427c0,4.679-0.302,9.358-0.898,13.986
				c-2.215-0.58-4.442-1.151-6.696-1.704c-0.399-0.098-0.804-0.191-1.204-0.288c-1.205-0.293-2.408-0.585-3.624-0.869
				c-18.806-4.403-38.887-7.827-59.98-9.72V218.869z M235.729,182.774h40.542v138.823c-6.606-0.338-13.295-0.528-20.072-0.534
				h-0.003h-0.399h-0.002c-6.775,0.006-13.461,0.196-20.065,0.534V182.774z M220.056,218.867v103.831
				c-19.277,1.729-37.709,4.737-55.094,8.604c-5.582,1.241-11.049,2.576-16.41,3.978c-0.596-4.626-0.897-9.305-0.897-13.985
				C147.655,274.724,176.962,233.959,220.056,218.867z M78.357,196.545c0-1.814,1.476-3.29,3.291-3.29h11.797
				c1.815,0,3.291,1.476,3.291,3.29v24.409h-18.38V196.545z M29.424,255.081c-1.821,0-3.302-1.482-3.302-3.302V239.93
				c0-1.82,1.481-3.302,3.302-3.302H70.52h34.053h41.096c1.821,0,3.302,1.482,3.302,3.302v11.849c0,1.82-1.481,3.302-3.302,3.302
				h-41.096H70.52H29.424z M133.325,339.542c-7.215,2.151-14.192,4.42-20.915,6.767v-75.555h30.228
				c-6.881,15.528-10.657,32.662-10.657,50.542C131.981,327.408,132.437,333.518,133.325,339.542z M96.737,270.754v81.325
				c-6.41,2.487-12.544,5.019-18.38,7.557v-88.882H96.737z M496.329,457.143H15.673v-23.369c2.76,0.732,5.658,1.097,8.714,1.097
				c15.108,0,22.84-8.628,29.053-15.561c5.921-6.608,9.65-10.347,17.382-10.347c7.731,0,11.458,3.738,17.381,10.346
				c6.215,6.933,13.949,15.562,29.064,15.562c7.559,0,14.096-2.188,19.983-6.689c3.439-2.629,4.095-7.547,1.466-10.986
				c-2.629-3.438-7.547-4.093-10.985-1.465c-3.179,2.43-6.308,3.467-10.464,3.467c-7.739,0-11.468-3.74-17.393-10.35
				c-6.213-6.931-13.945-15.557-29.052-15.557c-15.109,0-22.841,8.628-29.054,15.561c-5.921,6.608-9.649,10.347-17.381,10.347
				c-3.333,0-6.073-0.697-8.69-2.263c0.006-0.18,0.019-0.357,0.033-0.535c0.018-0.208,0.03-0.417,0.06-0.623
				c0.034-0.245,0.087-0.484,0.137-0.724c0.041-0.195,0.076-0.393,0.128-0.585c0.066-0.246,0.15-0.484,0.232-0.723
				c0.062-0.179,0.116-0.359,0.186-0.535c0.099-0.247,0.217-0.484,0.334-0.722c0.077-0.158,0.146-0.32,0.23-0.473
				c0.137-0.25,0.295-0.487,0.451-0.724c0.086-0.132,0.163-0.269,0.255-0.396c0.183-0.255,0.388-0.494,0.592-0.734
				c0.085-0.098,0.16-0.205,0.248-0.3c0.258-0.28,0.537-0.542,0.824-0.796c0.049-0.044,0.093-0.093,0.143-0.136
				c0.347-0.296,0.714-0.572,1.1-0.826c3.348-2.203,7.864-5.068,13.433-8.374c27.444-16.289,80.703-43.399,148.581-56.07
				c22.863-4.267,47.385-6.896,73.139-6.922h0.383c27.596,0.028,53.779,3.045,78.021,7.863c0.532,0.106,1.057,0.217,1.587,0.325
				c1.078,0.218,2.16,0.436,3.231,0.661c64.077,13.503,114.064,39.304,139.907,54.748c5.105,3.051,9.271,5.7,12.413,7.768
				c0.387,0.255,0.754,0.531,1.101,0.826c0.052,0.045,0.097,0.096,0.148,0.142c0.286,0.253,0.564,0.514,0.821,0.793
				c0.087,0.095,0.161,0.2,0.245,0.297c0.207,0.24,0.413,0.482,0.597,0.739c0.091,0.128,0.167,0.263,0.253,0.395
				c0.157,0.239,0.316,0.477,0.452,0.727c0.085,0.155,0.154,0.317,0.231,0.475c0.116,0.238,0.235,0.475,0.334,0.722
				c0.07,0.176,0.124,0.357,0.185,0.537c0.081,0.239,0.167,0.479,0.232,0.724c0.051,0.193,0.086,0.391,0.128,0.587
				c0.05,0.24,0.102,0.48,0.137,0.724c0.029,0.206,0.041,0.416,0.058,0.625c0.015,0.183,0.028,0.366,0.034,0.551
				c-2.601,1.546-5.325,2.234-8.64,2.234c-7.739,0-11.468-3.74-17.393-10.35c-6.213-6.931-13.946-15.557-29.053-15.557
				c-15.109,0-22.84,8.628-29.053,15.561c-5.922,6.608-9.65,10.347-17.382,10.347c-7.739,0-11.469-3.74-17.393-10.35
				c-6.213-6.932-13.945-15.557-29.052-15.557c-15.108,0-22.84,8.628-29.053,15.561c-5.922,6.608-9.65,10.347-17.383,10.347
				c-7.583,0-11.207-3.702-16.96-10.247c-6.127-6.975-13.757-15.653-28.94-15.653c-15.189,0-22.811,8.683-28.936,15.658
				c-5.741,6.54-9.358,10.239-16.924,10.239c-7.732,0-11.459-3.739-17.381-10.347c-6.213-6.933-13.945-15.561-29.054-15.561
				c-5.953,0-11.198,1.331-16.036,4.071c-3.766,2.133-5.091,6.914-2.958,10.681c2.133,3.767,6.915,5.092,10.681,2.958
				c2.454-1.39,5.096-2.036,8.314-2.036c7.732,0,11.459,3.739,17.382,10.347c6.213,6.933,13.945,15.561,29.053,15.561
				c15.032,0,22.612-8.634,28.702-15.571c5.791-6.594,9.442-10.326,17.158-10.326c7.718,0,11.374,3.731,17.172,10.326
				c6.099,6.938,13.689,15.571,28.731,15.571c15.109,0,22.841-8.628,29.054-15.561c5.922-6.608,9.65-10.347,17.382-10.347
				c7.732,0,11.458,3.738,17.382,10.344c6.214,6.934,13.949,15.563,29.064,15.563c15.109,0,22.84-8.628,29.053-15.561
				c5.922-6.608,9.65-10.347,17.382-10.347c7.732,0,11.459,3.739,17.383,10.346c6.214,6.933,13.949,15.562,29.063,15.562
				c3.039,0,5.918-0.359,8.662-1.084V457.143z"/>
			<ellipse cx="101.878" cy="389.91" rx="7.018" ry="7.03"/>
			<ellipse cx="203.849" cy="382.88" rx="7.018" ry="7.03"/>
			<ellipse cx="328.719" cy="362.17" rx="7.018" ry="7.03"/>
			<ellipse cx="393.564" cy="396.939" rx="7.018" ry="7.03"/>
			<ellipse cx="288.095" cy="377.278" rx="7.018" ry="7.03"/>
			<ellipse cx="239.412" cy="349.387" rx="7.018" ry="7.03"/>
		</g>
	</g>
</g>
</svg>