<?xml version="1.0" encoding="iso-8859-1"?>
<!-- Generator: Adobe Illustrator 19.0.0, SVG Export Plug-In . SVG Version: 6.00 Build 0)  -->
<svg version="1.1" id="Layer_1" xmlns="http://www.w3.org/2000/svg" xmlns:xlink="http://www.w3.org/1999/xlink" x="0px" y="0px"
	 viewBox="0 0 511.999 511.999" style="enable-background:new 0 0 511.999 511.999;" xml:space="preserve">
<g>
	<g>
		<path d="M506.784,168.058l-95.761-95.761c-10.69-10.69-24.903-16.577-40.023-16.577H140.997c-15.118,0-29.333,5.888-40.022,16.577
			l-95.76,95.761c-6.953,6.955-6.953,18.27,0,25.224l51.635,51.635c3.37,3.37,7.848,5.225,12.613,5.225s9.243-1.855,12.613-5.225
			l30.743-30.743V433.77c0,12.412,10.098,22.51,22.51,22.51h241.343c12.412,0,22.51-10.098,22.51-22.51V214.174l30.743,30.743
			c3.37,3.37,7.848,5.225,12.613,5.225c4.764,0,9.243-1.855,12.613-5.225l51.635-51.636
			C513.737,186.327,513.737,175.012,506.784,168.058z M291.492,71.888c-3.688,16.195-18.195,28.322-35.491,28.322
			c-17.295,0-31.802-12.127-35.49-28.322H291.492z M204.05,71.888c3.901,25.165,25.711,44.491,51.953,44.491
			c26.242,0,48.052-19.325,51.953-44.491h12.552c-3.995,32.051-31.389,56.942-64.504,56.942s-60.51-24.889-64.504-56.942H204.05z
			 M383.012,433.77c0,3.497-2.845,6.341-6.341,6.341H135.328c-3.497,0-6.341-2.845-6.341-6.341v-50.941h254.025V433.77z
			 M383.012,366.66H128.987v-32.647h254.025V366.66z M383.012,317.844H128.987v-24.639h254.025V317.844z M383.012,277.035H128.987
			v-32.647h254.025V277.035z M495.351,181.849l-51.635,51.635c-0.403,0.403-0.865,0.488-1.179,0.488s-0.776-0.085-1.179-0.488
			l-34.643-34.643c-3.987-3.985-9.926-5.167-15.132-3.01c-5.206,2.156-8.571,7.192-8.571,12.827v19.56H128.987v-19.56
			c0-5.635-3.364-10.67-8.571-12.827c-1.729-0.716-3.537-1.064-5.328-1.064c-3.606,0-7.14,1.411-9.804,4.073l-34.643,34.643
			c-0.403,0.403-0.865,0.488-1.179,0.488s-0.776-0.085-1.179-0.488l-51.635-51.635c-0.651-0.651-0.651-1.709,0-2.359l95.761-95.76
			c7.636-7.636,17.789-11.842,28.588-11.842h34.215c4.071,40.989,38.747,73.111,80.79,73.111s76.72-32.121,80.79-73.111h34.209
			c10.8,0,20.953,4.205,28.589,11.842l95.761,95.76C496.001,180.14,496.001,181.199,495.351,181.849z"/>
	</g>
</g>
<g>
</g>
<g>
</g>
<g>
</g>
<g>
</g>
<g>
</g>
<g>
</g>
<g>
</g>
<g>
</g>
<g>
</g>
<g>
</g>
<g>
</g>
<g>
</g>
<g>
</g>
<g>
</g>
<g>
</g>
</svg>
