<?xml version="1.0" encoding="iso-8859-1"?>
<!-- Generator: Adobe Illustrator 19.0.0, SVG Export Plug-In . SVG Version: 6.00 Build 0)  -->
<svg version="1.1" id="Layer_1" xmlns="http://www.w3.org/2000/svg" xmlns:xlink="http://www.w3.org/1999/xlink" x="0px" y="0px"
	 viewBox="0 0 512.001 512.001" style="enable-background:new 0 0 512.001 512.001;" xml:space="preserve">
<g>
	<g>
		<path d="M480.179,190.07l13.485-7.986c-11.473-19.372-27.819-35.603-47.271-46.935c-20.053-11.683-42.987-17.858-66.321-17.858
			h-60.644c-7.031-5.444-14.723-9.931-22.852-13.383l-9.939-41.961l26.853-50.191H197.398l27.148,50.192l-10.263,42.446
			c-7.71,3.382-15.009,7.707-21.711,12.897h-60.643c-23.372,0-46.338,6.194-66.415,17.913
			c-19.476,11.368-35.828,27.644-47.288,47.068l13.499,7.964c16.557-28.065,44.197-47.67,75.399-54.551
			c-38.763,23.005-64.806,65.282-64.806,113.533v96.632c0,13.749,2.108,27.301,6.264,40.279l14.926-4.78
			c-3.66-11.43-5.517-23.373-5.517-35.498v-96.632c0-64.103,52.152-116.255,116.255-116.255h2.111
			c-10.379,12.501-17.771,27.34-21.323,43.219l15.295,3.422c4.269-19.082,15.066-36.419,30.403-48.818
			c15.559-12.577,35.186-19.505,55.267-19.505c20.081,0,39.708,6.928,55.267,19.506c15.337,12.399,26.135,29.736,30.403,48.817
			l15.296-3.422c-3.553-15.879-10.944-30.718-21.324-43.219h2.112c64.103,0,116.255,52.152,116.255,116.255v96.632
			c0,12.124-1.856,24.067-5.516,35.498l14.926,4.779c4.157-12.978,6.263-26.53,6.263-40.278v-96.632
			c0-48.249-26.041-90.525-64.801-113.53C436.015,142.559,463.615,162.1,480.179,190.07z M256,95.608
			c-8.179,0-16.289,0.999-24.166,2.888l9.361-38.713l-17.5-32.354h63.632l-13.976,26.122H256v15.673h16.253l6.874,29.025
			C271.577,96.519,263.82,95.608,256,95.608z"/>
	</g>
</g>
<g>
	<g>
		<path d="M505.374,207.828l-14.883,4.914c3.872,11.728,5.836,24,5.836,36.476v96.632c0,55.678-39.348,102.332-91.695,113.636
			c19.383-11.406,35.891-27.725,47.473-47.799l-13.575-7.833c-20.729,35.931-59.344,58.251-100.775,58.251h-1.444
			c9.975-12.259,17.093-26.716,20.594-42.153l-15.286-3.465c-4.313,19.024-15.125,36.303-30.442,48.653
			c-15.543,12.53-35.138,19.431-55.176,19.431s-39.632-6.901-55.174-19.431c-15.317-12.35-26.129-29.628-30.442-48.653
			l-15.286,3.465c3.499,15.437,10.618,29.895,20.593,42.153h-1.444c-41.432,0-80.047-22.32-100.775-58.251l-13.576,7.831
			c11.581,20.075,28.09,36.394,47.473,47.8c-52.347-11.303-91.695-57.957-91.695-113.636v-96.632
			c0-12.475,1.963-24.747,5.835-36.475l-14.883-4.914C2.229,221.145,0,235.071,0,249.219v96.632
			C0,418.597,59.183,477.78,131.929,477.78h59.627c18.228,14.485,41.079,22.465,64.444,22.465c23.364,0,46.216-7.98,64.444-22.465
			h59.628c72.746,0,131.929-59.183,131.929-131.929v-96.632C512,235.071,509.77,221.145,505.374,207.828z"/>
	</g>
</g>
<g>
	<g>
		<path d="M378.364,253.127l-42.952-42.952l-42.953,42.952h-13.472V268.8h112.849v-15.673H378.364z M314.626,253.127l20.786-20.787
			l20.786,20.787H314.626z"/>
	</g>
</g>
<g>
	<g>
		<rect x="402.286" y="253.127" width="26.122" height="15.673"/>
	</g>
</g>
<g>
	<g>
		<path d="M219.539,253.127l-42.952-42.952l-42.952,42.952h-13.473V268.8h111.804v-15.673H219.539z M155.802,253.127l20.786-20.787
			l20.787,20.787H155.802z"/>
	</g>
</g>
<g>
	<g>
		<rect x="83.592" y="253.127" width="26.122" height="15.673"/>
	</g>
</g>
<g>
	<g>
		<path d="M239.282,335.672v19.331h-16.718v-19.33h-66.071l4.873,11.009c16.567,37.427,53.714,61.61,94.634,61.61
			c3.948,0,7.939-0.228,11.862-0.676l6.946-0.795v-22.56h16.718v18.6l11.396-5.811c21.168-10.792,38.113-28.68,47.712-50.369
			l4.872-11.009H239.282z M307.2,376.135v-7.547h-48.065v0v23.977c-31.708,1.111-61.168-14.938-77.598-41.217h25.353v19.33h48.065
			v-19.331h75.499C324.391,361.024,316.477,369.458,307.2,376.135z"/>
	</g>
</g>
<g>
</g>
<g>
</g>
<g>
</g>
<g>
</g>
<g>
</g>
<g>
</g>
<g>
</g>
<g>
</g>
<g>
</g>
<g>
</g>
<g>
</g>
<g>
</g>
<g>
</g>
<g>
</g>
<g>
</g>
</svg>
