<?xml version="1.0" encoding="iso-8859-1"?>
<!-- Generator: Adobe Illustrator 19.0.0, SVG Export Plug-In . SVG Version: 6.00 Build 0)  -->
<svg version="1.1" id="Layer_1" xmlns="http://www.w3.org/2000/svg" xmlns:xlink="http://www.w3.org/1999/xlink" x="0px" y="0px"
	 viewBox="0 0 512 512" style="enable-background:new 0 0 512 512;" xml:space="preserve">
<g>
	<g>
		<path d="M512,277.707c0-27.258-19.073-50.13-44.571-56.011c8.88-10.246,14.105-23.54,14.105-37.681
			c0-31.702-25.791-57.493-57.492-57.493c-5.218,0-10.316,0.701-15.205,2.029c0.876-4.01,1.341-8.133,1.341-12.317
			c0-31.702-25.791-57.493-57.493-57.493c-15.062,0-29.068,5.901-39.493,15.742c-6.764-24.225-29.017-42.055-55.37-42.055
			c-26.465,0-48.798,17.98-55.458,42.362c-11.125-9.942-26.56-16.049-43.048-16.049c-31.702,0-57.493,25.791-57.493,57.493
			c0,4.184,0.465,8.307,1.341,12.317c-4.889-1.33-9.988-2.029-15.205-2.029c-31.702,0-57.492,25.791-57.492,57.493
			c0,14.141,5.226,27.435,14.105,37.681C19.073,227.577,0,250.449,0,277.707c0,25.592,16.812,47.323,39.969,54.753
			c-11.012,10.539-17.664,25.344-17.664,41.554c-0.001,31.701,25.79,57.493,57.492,57.493c11.518,0,22.636-3.397,32.15-9.823
			c0.146-0.098,0.288-0.201,0.426-0.308l4.947-3.821c0.085-0.065,0.169-0.132,0.252-0.202l82.103-68.66
			c8.499,8.348,18.823,14.832,30.313,18.814v95.511h-12.14c-4.571,0-8.277,3.705-8.277,8.277s3.706,8.277,8.277,8.277h20.417
			c4.571,0,8.277-3.705,8.277-8.277v-99.954c3.258,0.4,6.568,0.63,9.932,0.63c2.984,0,5.927-0.173,8.829-0.489v99.813
			c0,4.572,3.706,8.277,8.277,8.277h20.417c4.571,0,8.277-3.705,8.277-8.277s-3.706-8.277-8.277-8.277h-12.14v-95.137
			c11.735-3.877,22.286-10.359,30.975-18.768l81.6,68.24c0.083,0.07,0.166,0.137,0.252,0.202l4.947,3.821
			c0.138,0.108,0.28,0.21,0.426,0.308c9.514,6.426,20.631,9.823,32.15,9.823c31.702,0,57.492-25.791,57.492-57.493
			c0-16.21-6.652-31.014-17.664-41.554C495.188,325.031,512,303.3,512,277.707z M256.472,355.416
			c-35.599,0-64.56-28.962-64.56-64.56c0-14.825,4.88-28.751,14.114-40.292c0.042-0.05,0.084-0.099,0.126-0.15
			c28.528-34.663,34.168-46.568,34.717-47.812c2.457-5.56,4.379-11.432,5.768-17.538c3.163,0.734,6.453,1.136,9.836,1.136
			c3.299,0,6.509-0.382,9.599-1.08c1.391,6.089,3.313,11.955,5.776,17.532c0.567,1.264,6.362,13.337,34.656,47.715
			c9.504,11.729,14.529,25.729,14.529,40.49C321.033,326.454,292.071,355.416,256.472,355.416z M229.527,142.699
			c0-14.858,12.088-26.945,26.945-26.945c14.858,0,26.945,12.088,26.945,26.945s-12.088,26.945-26.945,26.945
			C241.615,169.644,229.527,157.557,229.527,142.699z M454.507,318.646c-3.068,0-10.153-0.855-11.838-1.159l-74.703-15.461
			c-4.477-0.925-8.856,1.951-9.782,6.428c-0.927,4.476,1.951,8.855,6.427,9.782l77.158,15.969c0.02,0.004,0.04,0.006,0.06,0.009
			c18.45,4.44,31.312,20.762,31.312,39.798c0,22.574-18.365,40.939-40.938,40.939c-8.119,0-15.955-2.367-22.676-6.848l-4.602-3.554
			l-81.417-68.086c8.876-13.006,14.078-28.71,14.078-45.609c0-18.598-6.3-36.202-18.26-50.961
			c-26.905-32.692-32.35-43.971-32.356-43.983c-2.447-5.539-4.259-11.475-5.429-17.698c11.139-7.885,18.43-20.861,18.43-35.516
			c0-23.986-19.514-43.499-43.499-43.499c-23.986,0-43.499,19.514-43.499,43.499c0,14.558,7.195,27.459,18.209,35.359
			c-1.168,6.277-2.982,12.25-5.414,17.759c-0.052,0.11-5.474,11.338-32.215,43.852c-0.082,0.093-0.162,0.189-0.241,0.286
			c-11.579,14.351-17.956,32.428-17.956,50.9c0,16.682,5.067,32.2,13.734,45.106l-82.018,68.589l-4.602,3.555
			c-6.721,4.481-14.555,6.847-22.676,6.847c-22.574,0-40.938-18.365-40.938-40.939c0-19.036,12.863-35.358,31.315-39.798
			c0.02-0.004,0.039-0.005,0.058-0.009l81.405-16.849c4.476-0.927,7.354-5.307,6.427-9.783c-0.926-4.476-5.309-7.349-9.782-6.427
			l-78.947,16.34c-0.896-0.1-1.823-0.064-2.752,0.149c-2.962,0.67-6.02,1.011-9.088,1.011
			c-22.573,0.002-40.938-18.363-40.938-40.937s18.365-40.939,40.938-40.939c3.923,0,7.802,0.553,11.529,1.643
			c0.384,0.113,0.77,0.185,1.155,0.242l80.112,23.904c0.789,0.236,1.587,0.348,2.369,0.348c3.565,0,6.857-2.322,7.928-5.912
			c1.307-4.381-1.184-8.991-5.564-10.298l-80.94-24.151c-16.191-5.834-27.064-21.303-27.064-38.529
			c0-22.574,18.365-40.939,40.938-40.939c11.132,0,21.526,4.388,29.297,12.351c0.021,0.023,0.04,0.046,0.061,0.068
			c0.075,0.081,0.158,0.149,0.235,0.226l55.725,57.065c1.621,1.661,3.771,2.494,5.922,2.494c2.086,0,4.173-0.784,5.782-2.355
			c3.271-3.195,3.333-8.435,0.139-11.705l-55.828-57.171c-0.013-0.013-0.028-0.024-0.042-0.039
			c-7.011-7.583-10.873-17.437-10.873-27.777c0-22.574,18.365-40.939,40.939-40.939c19.956,0,38.317,12.261,42.707,28.52
			c2.769,10.256,18.532,6.097,16.031-4.123c-0.777-3.178-1.171-6.465-1.171-9.771c0-22.574,18.365-40.939,40.939-40.939
			s40.938,18.365,40.938,40.939c0,3.252-0.217,5.988-0.633,8.173c-0.341,1.027-0.665,2.064-0.95,3.12
			c-1.192,4.413,1.42,8.957,5.834,10.148c4.412,1.195,8.957-1.42,10.149-5.833c4.806-17.801,21.06-30.234,39.526-30.234
			c22.574,0,40.939,18.365,40.939,40.939c0,10.342-3.862,20.195-10.873,27.778c-0.013,0.013-0.028,0.024-0.042,0.039l-54.821,56.139
			c-3.194,3.271-3.132,8.511,0.139,11.705c1.609,1.572,3.697,2.355,5.782,2.355c2.151,0,4.301-0.833,5.922-2.494l54.72-56.035
			c0.077-0.076,0.159-0.145,0.233-0.224c0.021-0.022,0.04-0.046,0.061-0.068c7.771-7.964,18.164-12.351,29.297-12.351
			c22.574,0,40.938,18.365,40.938,40.939c0,17.226-10.873,32.696-27.063,38.529l-77.861,23.233
			c-4.38,1.307-6.872,5.917-5.564,10.298c1.072,3.591,4.364,5.912,7.928,5.912c0.784,0,1.58-0.113,2.369-0.348l77.033-22.987
			c0.385-0.055,0.77-0.128,1.154-0.241c3.727-1.09,7.607-1.643,11.529-1.643c22.574,0,40.938,18.365,40.938,40.939
			C495.441,300.281,477.081,318.646,454.507,318.646z"/>
	</g>
</g>
<g>
	<g>
		<circle cx="256.476" cy="82.722" r="8.277"/>
	</g>
</g>
<g>
</g>
<g>
</g>
<g>
</g>
<g>
</g>
<g>
</g>
<g>
</g>
<g>
</g>
<g>
</g>
<g>
</g>
<g>
</g>
<g>
</g>
<g>
</g>
<g>
</g>
<g>
</g>
<g>
</g>
</svg>
