<?xml version="1.0" encoding="iso-8859-1"?>
<!-- Generator: Adobe Illustrator 19.0.0, SVG Export Plug-In . SVG Version: 6.00 Build 0)  -->
<svg version="1.1" id="Capa_1" xmlns="http://www.w3.org/2000/svg" xmlns:xlink="http://www.w3.org/1999/xlink" x="0px" y="0px"
	 viewBox="0 0 463 463" style="enable-background:new 0 0 463 463;" xml:space="preserve">
<g>
	<path d="M423.5,188H359v-72.5c0-4.142-3.358-7.5-7.5-7.5H335v-9.909c13.759-3.374,24-15.806,24-30.591
		c0-4.422-1.349-12.627-13.013-32.734c-6.078-10.479-12.064-19.164-12.316-19.529C332.271,13.21,329.964,12,327.5,12
		s-4.771,1.21-6.171,3.237c-0.252,0.365-6.238,9.05-12.317,19.529C297.349,54.873,296,63.078,296,67.5
		c0,14.785,10.241,27.216,24,30.591V108h-16.5c-4.142,0-7.5,3.358-7.5,7.5V188h-33v-72.5c0-4.142-3.358-7.5-7.5-7.5H239v-9.909
		c13.759-3.374,24-15.806,24-30.591c0-4.422-1.349-12.627-13.013-32.734c-6.078-10.479-12.064-19.164-12.316-19.529
		C236.271,13.21,233.964,12,231.5,12s-4.771,1.21-6.171,3.237c-0.252,0.365-6.238,9.05-12.316,19.529
		C201.349,54.873,200,63.078,200,67.5c0,14.785,10.241,27.216,24,30.591V108h-16.5c-4.142,0-7.5,3.358-7.5,7.5V188h-33v-72.5
		c0-4.142-3.358-7.5-7.5-7.5H143v-9.909c13.759-3.374,24-15.806,24-30.591c0-4.422-1.349-12.627-13.013-32.734
		c-6.078-10.479-12.064-19.164-12.316-19.529C140.271,13.21,137.964,12,135.5,12s-4.771,1.21-6.171,3.237
		c-0.252,0.365-6.238,9.05-12.316,19.529C105.349,54.873,104,63.078,104,67.5c0,14.785,10.241,27.216,24,30.591V108h-16.5
		c-4.142,0-7.5,3.358-7.5,7.5V188H39.5C17.72,188,0,205.72,0,227.5v216c0,4.142,3.358,7.5,7.5,7.5h448c4.142,0,7.5-3.358,7.5-7.5
		v-216C463,205.72,445.281,188,423.5,188z M311,67.5c0-5.464,7.752-20.466,16.501-34.368C336.25,47.028,344,62.028,344,67.5
		c0,6.396-3.666,11.942-9,14.678V67.5c0-4.142-3.358-7.5-7.5-7.5s-7.5,3.358-7.5,7.5v14.679C314.666,79.442,311,73.896,311,67.5z
		 M215,67.5c0-5.464,7.752-20.466,16.501-34.368C240.25,47.028,248,62.028,248,67.5c0,6.396-3.666,11.942-9,14.678V67.5
		c0-4.142-3.358-7.5-7.5-7.5s-7.5,3.358-7.5,7.5v14.678C218.666,79.442,215,73.896,215,67.5z M119,67.5
		c0-5.464,7.752-20.466,16.501-34.368C144.25,47.028,152,62.028,152,67.5c0,6.396-3.666,11.942-9,14.678V67.5
		c0-4.142-3.358-7.5-7.5-7.5s-7.5,3.358-7.5,7.5v14.678C122.666,79.442,119,73.896,119,67.5z M39.5,247.869
		C45.282,254.672,53.893,259,63.5,259s18.218-4.328,24-11.131c5.782,6.803,14.393,11.131,24,11.131s18.218-4.328,24-11.131
		c5.782,6.803,14.393,11.131,24,11.131s18.218-4.328,24-11.131c5.782,6.803,14.393,11.131,24,11.131s18.218-4.328,24-11.131
		c5.782,6.803,14.393,11.131,24,11.131s18.218-4.328,24-11.131c5.782,6.803,14.393,11.131,24,11.131c9.607,0,18.218-4.328,24-11.131
		c5.782,6.803,14.393,11.131,24,11.131s18.218-4.328,24-11.131c5.782,6.803,14.393,11.131,24,11.131s18.218-4.328,24-11.131
		c5.782,6.803,14.393,11.131,24,11.131c0.169,0,0.334-0.014,0.5-0.025v17.05c-0.167-0.011-0.333-0.025-0.5-0.025
		c-1.97,0-3.91,0.8-5.3,2.2c-1.4,1.39-2.2,3.32-2.2,5.3s0.8,3.91,2.2,5.3c1.39,1.4,3.33,2.2,5.3,2.2c0.167,0,0.334-0.014,0.5-0.025
		v41.051c-0.166-0.011-0.331-0.025-0.5-0.025c-8.281,0-12.848,3.037-16.183,5.255c-2.662,1.77-4.128,2.745-7.877,2.745
		s-5.215-0.975-7.876-2.745c-3.335-2.218-7.902-5.255-16.183-5.255c-8.274,0-12.836,3.039-16.168,5.258
		c-2.654,1.768-4.117,2.742-7.853,2.742c-3.734,0-5.196-0.974-7.849-2.742c-3.331-2.219-7.893-5.258-16.166-5.258
		c-8.273,0-12.834,3.04-16.165,5.259c-2.653,1.768-4.114,2.741-7.847,2.741c-3.724,0-5.183-0.973-7.83-2.739
		c-3.328-2.22-7.886-5.261-16.154-5.261c-8.273,0-12.834,3.04-16.165,5.259c-2.653,1.768-4.114,2.741-7.848,2.741
		s-5.195-0.974-7.848-2.741c-3.331-2.219-7.892-5.259-16.165-5.259c-8.271,0-12.831,3.04-16.161,5.259
		c-2.651,1.767-4.111,2.741-7.841,2.741c-3.726,0-5.185-0.973-7.833-2.74c-3.329-2.22-7.888-5.26-16.157-5.26
		c-8.271,0-12.832,3.04-16.162,5.259c-2.651,1.767-4.112,2.741-7.843,2.741c-3.723,0-5.181-0.973-7.828-2.739
		c-3.328-2.22-7.886-5.261-16.154-5.261c-8.27,0-12.829,3.04-16.158,5.26c-2.65,1.767-4.109,2.74-7.837,2.74
		c-3.718,0-5.175-0.973-7.819-2.738c-3.327-2.221-7.882-5.262-16.148-5.262c-8.27,0-12.829,3.04-16.158,5.26
		c-2.649,1.767-4.109,2.74-7.836,2.74c-3.718,0-5.175-0.973-7.819-2.738C76.242,335.042,71.687,332,63.421,332
		c-8.262,0-12.816,3.042-16.141,5.264c-2.642,1.764-4.096,2.736-7.809,2.736c-3.72,0-5.177-0.973-7.822-2.738
		C28.323,335.042,23.766,332,15.5,332c-0.169,0-0.334,0.014-0.5,0.025v-41.051c0.167,0.011,0.333,0.025,0.5,0.025
		c1.97,0,3.91-0.8,5.3-2.2c1.4-1.39,2.2-3.32,2.2-5.3c0-1.97-0.8-3.91-2.2-5.3c-1.39-1.4-3.33-2.2-5.3-2.2
		c-0.167,0-0.333,0.014-0.5,0.025v-17.05c0.166,0.011,0.331,0.025,0.5,0.025C25.107,259,33.718,254.672,39.5,247.869z M448,364.026
		c-0.166-0.011-0.331-0.025-0.5-0.025c-8.281,0-12.848,3.037-16.183,5.255c-2.662,1.77-4.128,2.745-7.877,2.745
		s-5.215-0.975-7.876-2.745c-3.335-2.218-7.902-5.255-16.183-5.255c-8.274,0-12.836,3.039-16.168,5.258
		c-2.654,1.768-4.117,2.742-7.853,2.742c-3.734,0-5.196-0.974-7.849-2.742c-3.331-2.219-7.893-5.258-16.166-5.258
		c-8.273,0-12.834,3.04-16.165,5.259c-2.653,1.768-4.114,2.741-7.847,2.741c-3.724,0-5.183-0.973-7.83-2.739
		c-3.328-2.22-7.886-5.261-16.154-5.261c-8.273,0-12.834,3.04-16.165,5.259c-2.653,1.768-4.114,2.741-7.848,2.741
		s-5.195-0.974-7.848-2.741c-3.331-2.219-7.892-5.259-16.165-5.259c-8.271,0-12.831,3.04-16.161,5.259
		c-2.651,1.767-4.111,2.741-7.841,2.741c-3.726,0-5.185-0.973-7.833-2.74c-3.329-2.22-7.888-5.26-16.157-5.26
		c-8.271,0-12.832,3.04-16.162,5.259c-2.651,1.767-4.112,2.741-7.843,2.741c-3.723,0-5.181-0.973-7.828-2.739
		c-3.328-2.22-7.886-5.261-16.154-5.261c-8.27,0-12.829,3.04-16.158,5.26c-2.65,1.767-4.109,2.74-7.837,2.74
		c-3.718,0-5.175-0.973-7.819-2.738c-3.327-2.221-7.882-5.262-16.148-5.262c-8.27,0-12.829,3.04-16.158,5.26
		c-2.649,1.767-4.109,2.74-7.836,2.74c-3.718,0-5.175-0.973-7.819-2.738C76.242,367.042,71.687,364,63.421,364
		c-8.262,0-12.816,3.042-16.141,5.264c-2.642,1.764-4.096,2.736-7.809,2.736c-3.72,0-5.177-0.973-7.822-2.738
		C28.323,367.042,23.766,364,15.5,364c-0.169,0-0.334,0.014-0.5,0.025v-17.05c0.166,0.011,0.331,0.025,0.5,0.025
		c3.72,0,5.177,0.973,7.822,2.738c3.327,2.221,7.883,5.262,16.149,5.262c8.262,0,12.816-3.042,16.141-5.264
		c2.642-1.764,4.096-2.736,7.809-2.736c3.718,0,5.175,0.973,7.819,2.738c3.327,2.221,7.882,5.262,16.147,5.262
		c8.27,0,12.829-3.04,16.158-5.26c2.649-1.767,4.109-2.74,7.836-2.74c3.719,0,5.175,0.973,7.82,2.738
		c3.327,2.221,7.882,5.262,16.147,5.262c8.27,0,12.83-3.04,16.159-5.26c2.65-1.767,4.109-2.74,7.837-2.74
		c3.724,0,5.182,0.973,7.829,2.739c3.328,2.221,7.886,5.261,16.153,5.261c8.271,0,12.832-3.04,16.162-5.259
		c2.651-1.767,4.112-2.741,7.843-2.741c3.726,0,5.185,0.973,7.833,2.74c3.329,2.22,7.888,5.26,16.157,5.26
		c8.271,0,12.832-3.04,16.161-5.259c2.651-1.767,4.111-2.741,7.841-2.741c3.733,0,5.194,0.974,7.847,2.741
		c3.331,2.219,7.892,5.259,16.165,5.259s12.834-3.04,16.165-5.259c2.653-1.768,4.114-2.741,7.848-2.741
		c3.724,0,5.183,0.973,7.83,2.739c3.328,2.22,7.886,5.261,16.154,5.261c8.273,0,12.834-3.04,16.165-5.259
		c2.653-1.768,4.114-2.741,7.847-2.741c3.734,0,5.196,0.974,7.849,2.742c3.331,2.219,7.893,5.258,16.166,5.258
		c8.274,0,12.837-3.039,16.168-5.258c2.654-1.768,4.117-2.742,7.853-2.742c3.749,0,5.215,0.975,7.876,2.745
		c3.335,2.218,7.902,5.255,16.183,5.255c8.281,0,12.849-3.037,16.184-5.255c2.662-1.77,4.128-2.745,7.876-2.745
		c0.169,0,0.334-0.014,0.5-0.025V364.026z M15,378.975c0.166,0.011,0.331,0.025,0.5,0.025c3.72,0,5.177,0.973,7.822,2.738
		c3.327,2.221,7.883,5.262,16.149,5.262c8.262,0,12.816-3.042,16.141-5.264c2.642-1.764,4.096-2.736,7.809-2.736
		c3.718,0,5.175,0.973,7.819,2.738c3.327,2.221,7.882,5.262,16.147,5.262c8.27,0,12.829-3.04,16.158-5.26
		c2.649-1.767,4.109-2.74,7.836-2.74c3.719,0,5.175,0.973,7.82,2.738c3.327,2.221,7.882,5.262,16.147,5.262
		c8.27,0,12.83-3.04,16.159-5.26c2.65-1.767,4.109-2.74,7.837-2.74c3.724,0,5.182,0.973,7.829,2.739
		c3.328,2.221,7.886,5.261,16.153,5.261c8.271,0,12.832-3.04,16.162-5.259c2.651-1.767,4.112-2.741,7.843-2.741
		c3.726,0,5.185,0.973,7.833,2.74c3.329,2.22,7.888,5.26,16.157,5.26c8.271,0,12.832-3.04,16.161-5.259
		c2.651-1.767,4.111-2.741,7.841-2.741c3.733,0,5.194,0.974,7.847,2.741c3.331,2.219,7.892,5.259,16.165,5.259
		s12.834-3.04,16.165-5.259c2.653-1.768,4.114-2.741,7.848-2.741c3.724,0,5.183,0.973,7.83,2.739
		c3.328,2.22,7.886,5.261,16.154,5.261c8.273,0,12.834-3.04,16.165-5.259c2.653-1.768,4.114-2.741,7.847-2.741
		c3.734,0,5.196,0.974,7.849,2.742c3.331,2.219,7.893,5.258,16.166,5.258c8.274,0,12.837-3.039,16.168-5.258
		c2.654-1.768,4.117-2.742,7.853-2.742c3.749,0,5.215,0.975,7.876,2.745c3.335,2.218,7.902,5.255,16.183,5.255
		c8.281,0,12.849-3.037,16.184-5.255c2.662-1.77,4.128-2.745,7.876-2.745c0.169,0,0.334-0.014,0.5-0.025V404H15V378.975z M311,123
		h33v65h-33V123z M215,123h33v65h-33V123z M119,123h33v65h-33V123z M39.5,203h384c13.509,0,24.5,10.991,24.5,24.5v16.525
		c-0.166-0.011-0.331-0.025-0.5-0.025c-9.098,0-16.5-7.402-16.5-16.5c0-4.142-3.358-7.5-7.5-7.5s-7.5,3.358-7.5,7.5
		c0,9.098-7.402,16.5-16.5,16.5s-16.5-7.402-16.5-16.5c0-4.142-3.358-7.5-7.5-7.5s-7.5,3.358-7.5,7.5c0,9.098-7.402,16.5-16.5,16.5
		s-16.5-7.402-16.5-16.5c0-4.142-3.358-7.5-7.5-7.5s-7.5,3.358-7.5,7.5c0,9.098-7.402,16.5-16.5,16.5c-9.098,0-16.5-7.402-16.5-16.5
		c0-4.142-3.358-7.5-7.5-7.5s-7.5,3.358-7.5,7.5c0,9.098-7.402,16.5-16.5,16.5s-16.5-7.402-16.5-16.5c0-4.142-3.358-7.5-7.5-7.5
		s-7.5,3.358-7.5,7.5c0,9.098-7.402,16.5-16.5,16.5s-16.5-7.402-16.5-16.5c0-4.142-3.358-7.5-7.5-7.5s-7.5,3.358-7.5,7.5
		c0,9.098-7.402,16.5-16.5,16.5s-16.5-7.402-16.5-16.5c0-4.142-3.358-7.5-7.5-7.5s-7.5,3.358-7.5,7.5c0,9.098-7.402,16.5-16.5,16.5
		S95,236.598,95,227.5c0-4.142-3.358-7.5-7.5-7.5s-7.5,3.358-7.5,7.5c0,9.098-7.402,16.5-16.5,16.5S47,236.598,47,227.5
		c0-4.142-3.358-7.5-7.5-7.5s-7.5,3.358-7.5,7.5c0,9.098-7.402,16.5-16.5,16.5c-0.169,0-0.334,0.014-0.5,0.025V227.5
		C15,213.991,25.991,203,39.5,203z M15,436v-17h433v17H15z"/>
	<path d="M207.5,291c1.97,0,3.91-0.8,5.3-2.2c1.4-1.39,2.2-3.33,2.2-5.3c0-1.97-0.8-3.91-2.2-5.3c-1.39-1.4-3.33-2.2-5.3-2.2
		c-1.98,0-3.91,0.8-5.3,2.2c-1.4,1.39-2.2,3.32-2.2,5.3s0.8,3.91,2.2,5.3C203.59,290.2,205.53,291,207.5,291z"/>
	<path d="M255.5,291c1.97,0,3.91-0.8,5.3-2.2c1.4-1.39,2.2-3.32,2.2-5.3c0-1.97-0.8-3.91-2.2-5.3c-1.39-1.4-3.33-2.2-5.3-2.2
		c-1.98,0-3.91,0.8-5.3,2.2c-1.4,1.39-2.2,3.33-2.2,5.3c0,1.98,0.8,3.91,2.2,5.3C251.59,290.2,253.53,291,255.5,291z"/>
	<path d="M303.5,291c1.97,0,3.91-0.8,5.3-2.2c1.4-1.39,2.2-3.32,2.2-5.3s-0.8-3.91-2.2-5.3c-1.39-1.4-3.33-2.2-5.3-2.2
		c-1.98,0-3.91,0.8-5.3,2.2c-1.4,1.39-2.2,3.33-2.2,5.3c0,1.98,0.8,3.91,2.2,5.3C299.59,290.2,301.53,291,303.5,291z"/>
	<path d="M399.5,291c1.97,0,3.91-0.8,5.3-2.2c1.4-1.39,2.2-3.32,2.2-5.3c0-1.97-0.8-3.91-2.2-5.3c-1.39-1.4-3.32-2.2-5.3-2.2
		s-3.91,0.8-5.3,2.2c-1.4,1.39-2.2,3.32-2.2,5.3s0.8,3.91,2.2,5.3C395.59,290.2,397.53,291,399.5,291z"/>
	<path d="M351.5,291c1.97,0,3.91-0.8,5.3-2.2c1.4-1.39,2.2-3.32,2.2-5.3c0-1.97-0.8-3.91-2.2-5.3c-1.39-1.4-3.32-2.2-5.3-2.2
		s-3.91,0.8-5.3,2.2c-1.4,1.39-2.2,3.33-2.2,5.3c0,1.97,0.8,3.91,2.2,5.3C347.59,290.2,349.53,291,351.5,291z"/>
	<path d="M159.5,291c1.97,0,3.91-0.8,5.3-2.2c1.4-1.39,2.2-3.33,2.2-5.3c0-1.97-0.8-3.91-2.2-5.3c-1.39-1.4-3.33-2.2-5.3-2.2
		c-1.98,0-3.91,0.8-5.3,2.2c-1.4,1.39-2.2,3.32-2.2,5.3s0.8,3.91,2.2,5.3C155.59,290.2,157.53,291,159.5,291z"/>
	<path d="M111.5,291c1.97,0,3.91-0.8,5.3-2.2c1.4-1.39,2.2-3.32,2.2-5.3c0-1.97-0.8-3.91-2.2-5.3c-1.39-1.4-3.33-2.2-5.3-2.2
		c-1.98,0-3.91,0.8-5.3,2.2c-1.4,1.39-2.2,3.32-2.2,5.3s0.8,3.91,2.2,5.3C107.59,290.2,109.53,291,111.5,291z"/>
	<path d="M63.5,291c1.97,0,3.91-0.8,5.3-2.2c1.4-1.39,2.2-3.32,2.2-5.3c0-1.97-0.8-3.91-2.2-5.3c-1.39-1.4-3.33-2.2-5.3-2.2
		c-1.98,0-3.91,0.8-5.3,2.2c-1.4,1.39-2.2,3.32-2.2,5.3s0.8,3.91,2.2,5.3C59.59,290.2,61.53,291,63.5,291z"/>
</g>
<g>
</g>
<g>
</g>
<g>
</g>
<g>
</g>
<g>
</g>
<g>
</g>
<g>
</g>
<g>
</g>
<g>
</g>
<g>
</g>
<g>
</g>
<g>
</g>
<g>
</g>
<g>
</g>
<g>
</g>
</svg>
