<?xml version="1.0" ?><!DOCTYPE svg  PUBLIC '-//W3C//DTD SVG 1.1//EN'  'http://www.w3.org/Graphics/SVG/1.1/DTD/svg11.dtd'><svg width="512px" height="512px" viewBox="0 0 512 512" style="enable-background:new 0 0 512 512;" version="1.1" xml:space="preserve" xmlns="http://www.w3.org/2000/svg" xmlns:xlink="http://www.w3.org/1999/xlink"><g id="_x36_45_x2C__America_x2C__american_x2C__flag_x2C__states_x2C__united_x2C__usa"><g><g><g><g><polygon points="46.347,108.824 48.665,113.52 53.847,114.272 50.097,117.928 50.982,123.089 46.347,120.652 41.712,123.089        42.597,117.928 38.847,114.272 44.03,113.52      "/><polygon points="66.347,108.824 68.665,113.52 73.847,114.272 70.097,117.928 70.982,123.089 66.347,120.652 61.712,123.089        62.597,117.928 58.847,114.272 64.03,113.52      "/><polygon points="86.347,108.824 88.665,113.52 93.847,114.272 90.097,117.928 90.982,123.089 86.347,120.652 81.712,123.089        82.597,117.928 78.847,114.272 84.03,113.52      "/><polygon points="106.347,108.824 108.665,113.52 113.847,114.272 110.097,117.928 110.982,123.089 106.347,120.652        101.712,123.089 102.597,117.928 98.847,114.272 104.03,113.52      "/><polygon points="126.347,108.824 128.665,113.52 133.847,114.272 130.097,117.928 130.982,123.089 126.347,120.652        121.712,123.089 122.597,117.928 118.847,114.272 124.03,113.52      "/><polygon points="146.347,108.824 148.665,113.52 153.847,114.272 150.097,117.928 150.982,123.089 146.347,120.652        141.712,123.089 142.597,117.928 138.847,114.272 144.03,113.52      "/><polygon points="166.347,108.824 168.665,113.52 173.847,114.272 170.097,117.928 170.982,123.089 166.347,120.652        161.712,123.089 162.597,117.928 158.847,114.272 164.03,113.52      "/><polygon points="186.347,108.824 188.665,113.52 193.847,114.272 190.097,117.928 190.982,123.089 186.347,120.652        181.712,123.089 182.597,117.928 178.847,114.272 184.03,113.52      "/><polygon points="46.347,128.824 48.665,133.52 53.847,134.272 50.097,137.928 50.982,143.089 46.347,140.652 41.712,143.089        42.597,137.928 38.847,134.272 44.03,133.52      "/><polygon points="66.347,128.824 68.665,133.52 73.847,134.272 70.097,137.928 70.982,143.089 66.347,140.652 61.712,143.089        62.597,137.928 58.847,134.272 64.03,133.52      "/><polygon points="86.347,128.824 88.665,133.52 93.847,134.272 90.097,137.928 90.982,143.089 86.347,140.652 81.712,143.089        82.597,137.928 78.847,134.272 84.03,133.52      "/><polygon points="106.347,128.824 108.665,133.52 113.847,134.272 110.097,137.928 110.982,143.089 106.347,140.652        101.712,143.089 102.597,137.928 98.847,134.272 104.03,133.52      "/><polygon points="126.347,128.824 128.665,133.52 133.847,134.272 130.097,137.928 130.982,143.089 126.347,140.652        121.712,143.089 122.597,137.928 118.847,134.272 124.03,133.52      "/><polygon points="146.347,128.824 148.665,133.52 153.847,134.272 150.097,137.928 150.982,143.089 146.347,140.652        141.712,143.089 142.597,137.928 138.847,134.272 144.03,133.52      "/><polygon points="166.347,128.824 168.665,133.52 173.847,134.272 170.097,137.928 170.982,143.089 166.347,140.652        161.712,143.089 162.597,137.928 158.847,134.272 164.03,133.52      "/><polygon points="186.347,128.824 188.665,133.52 193.847,134.272 190.097,137.928 190.982,143.089 186.347,140.652        181.712,143.089 182.597,137.928 178.847,134.272 184.03,133.52      "/><polygon points="46.347,148.824 48.665,153.52 53.847,154.272 50.097,157.928 50.982,163.089 46.347,160.652 41.712,163.089        42.597,157.928 38.847,154.272 44.03,153.52      "/><polygon points="66.347,148.824 68.665,153.52 73.847,154.272 70.097,157.928 70.982,163.089 66.347,160.652 61.712,163.089        62.597,157.928 58.847,154.272 64.03,153.52      "/><polygon points="86.347,148.824 88.665,153.52 93.847,154.272 90.097,157.928 90.982,163.089 86.347,160.652 81.712,163.089        82.597,157.928 78.847,154.272 84.03,153.52      "/><polygon points="106.347,148.824 108.665,153.52 113.847,154.272 110.097,157.928 110.982,163.089 106.347,160.652        101.712,163.089 102.597,157.928 98.847,154.272 104.03,153.52      "/><polygon points="126.347,148.824 128.665,153.52 133.847,154.272 130.097,157.928 130.982,163.089 126.347,160.652        121.712,163.089 122.597,157.928 118.847,154.272 124.03,153.52      "/><polygon points="146.347,148.824 148.665,153.52 153.847,154.272 150.097,157.928 150.982,163.089 146.347,160.652        141.712,163.089 142.597,157.928 138.847,154.272 144.03,153.52      "/><polygon points="166.347,148.824 168.665,153.52 173.847,154.272 170.097,157.928 170.982,163.089 166.347,160.652        161.712,163.089 162.597,157.928 158.847,154.272 164.03,153.52      "/><polygon points="186.347,148.824 188.665,153.52 193.847,154.272 190.097,157.928 190.982,163.089 186.347,160.652        181.712,163.089 182.597,157.928 178.847,154.272 184.03,153.52      "/><polygon points="46.347,168.824 48.665,173.52 53.847,174.272 50.097,177.928 50.982,183.089 46.347,180.652 41.712,183.089        42.597,177.928 38.847,174.272 44.03,173.52      "/><polygon points="66.347,168.824 68.665,173.52 73.847,174.272 70.097,177.928 70.982,183.089 66.347,180.652 61.712,183.089        62.597,177.928 58.847,174.272 64.03,173.52      "/><polygon points="86.347,168.824 88.665,173.52 93.847,174.272 90.097,177.928 90.982,183.089 86.347,180.652 81.712,183.089        82.597,177.928 78.847,174.272 84.03,173.52      "/><polygon points="106.347,168.824 108.665,173.52 113.847,174.272 110.097,177.928 110.982,183.089 106.347,180.652        101.712,183.089 102.597,177.928 98.847,174.272 104.03,173.52      "/><polygon points="126.347,168.824 128.665,173.52 133.847,174.272 130.097,177.928 130.982,183.089 126.347,180.652        121.712,183.089 122.597,177.928 118.847,174.272 124.03,173.52      "/><polygon points="146.347,168.824 148.665,173.52 153.847,174.272 150.097,177.928 150.982,183.089 146.347,180.652        141.712,183.089 142.597,177.928 138.847,174.272 144.03,173.52      "/><polygon points="166.347,168.824 168.665,173.52 173.847,174.272 170.097,177.928 170.982,183.089 166.347,180.652        161.712,183.089 162.597,177.928 158.847,174.272 164.03,173.52      "/><polygon points="186.347,168.824 188.665,173.52 193.847,174.272 190.097,177.928 190.982,183.089 186.347,180.652        181.712,183.089 182.597,177.928 178.847,174.272 184.03,173.52      "/><polygon points="46.347,188.824 48.665,193.52 53.847,194.272 50.097,197.928 50.982,203.089 46.347,200.652 41.712,203.089        42.597,197.928 38.847,194.272 44.03,193.52      "/><polygon points="66.347,188.824 68.665,193.52 73.847,194.272 70.097,197.928 70.982,203.089 66.347,200.652 61.712,203.089        62.597,197.928 58.847,194.272 64.03,193.52      "/><polygon points="86.347,188.824 88.665,193.52 93.847,194.272 90.097,197.928 90.982,203.089 86.347,200.652 81.712,203.089        82.597,197.928 78.847,194.272 84.03,193.52      "/><polygon points="106.347,188.824 108.665,193.52 113.847,194.272 110.097,197.928 110.982,203.089 106.347,200.652        101.712,203.089 102.597,197.928 98.847,194.272 104.03,193.52      "/><polygon points="126.347,188.824 128.665,193.52 133.847,194.272 130.097,197.928 130.982,203.089 126.347,200.652        121.712,203.089 122.597,197.928 118.847,194.272 124.03,193.52      "/><polygon points="146.347,188.824 148.665,193.52 153.847,194.272 150.097,197.928 150.982,203.089 146.347,200.652        141.712,203.089 142.597,197.928 138.847,194.272 144.03,193.52      "/><polygon points="166.347,188.824 168.665,193.52 173.847,194.272 170.097,197.928 170.982,203.089 166.347,200.652        161.712,203.089 162.597,197.928 158.847,194.272 164.03,193.52      "/><polygon points="186.347,188.824 188.665,193.52 193.847,194.272 190.097,197.928 190.982,203.089 186.347,200.652        181.712,203.089 182.597,197.928 178.847,194.272 184.03,193.52      "/><polygon points="46.347,208.824 48.665,213.52 53.847,214.272 50.097,217.928 50.982,223.089 46.347,220.652 41.712,223.089        42.597,217.928 38.847,214.272 44.03,213.52      "/><polygon points="66.347,208.824 68.665,213.52 73.847,214.272 70.097,217.928 70.982,223.089 66.347,220.652 61.712,223.089        62.597,217.928 58.847,214.272 64.03,213.52      "/><polygon points="86.347,208.824 88.665,213.52 93.847,214.272 90.097,217.928 90.982,223.089 86.347,220.652 81.712,223.089        82.597,217.928 78.847,214.272 84.03,213.52      "/><polygon points="106.347,208.824 108.665,213.52 113.847,214.272 110.097,217.928 110.982,223.089 106.347,220.652        101.712,223.089 102.597,217.928 98.847,214.272 104.03,213.52      "/><polygon points="126.347,208.824 128.665,213.52 133.847,214.272 130.097,217.928 130.982,223.089 126.347,220.652        121.712,223.089 122.597,217.928 118.847,214.272 124.03,213.52      "/><polygon points="146.347,208.824 148.665,213.52 153.847,214.272 150.097,217.928 150.982,223.089 146.347,220.652        141.712,223.089 142.597,217.928 138.847,214.272 144.03,213.52      "/><polygon points="166.347,208.824 168.665,213.52 173.847,214.272 170.097,217.928 170.982,223.089 166.347,220.652        161.712,223.089 162.597,217.928 158.847,214.272 164.03,213.52      "/><polygon points="186.347,208.824 188.665,213.52 193.847,214.272 190.097,217.928 190.982,223.089 186.347,220.652        181.712,223.089 182.597,217.928 178.847,214.272 184.03,213.52      "/></g><g><path d="M206.347,245.957h-180c-5.523,0-10-4.477-10-10v-140c0-5.523,4.477-10,10-10h180c5.523,0,10,4.477,10,10v140       C216.347,241.479,211.87,245.957,206.347,245.957z M36.347,225.957h160v-120h-160V225.957z"/></g><g><path d="M486.348,425.956h-460c-5.523,0-10-4.478-10-10v-40c0-5.522,4.477-10,10-10h432.5c3.293,0,6.375,1.621,8.24,4.335       l27.5,40c2.104,3.06,2.339,7.034,0.61,10.32C493.469,423.898,490.062,425.956,486.348,425.956z M36.347,405.956h430.99       l-13.75-20H36.347V405.956z"/></g><g><path d="M438.223,355.956H26.347c-5.523,0-10-4.478-10-10v-40c0-5.522,4.477-10,10-10h384.375c3.293,0,6.375,1.621,8.24,4.335       l27.5,40c2.104,3.06,2.339,7.034,0.61,10.32C445.344,353.898,441.937,355.956,438.223,355.956z M36.347,335.956h382.866       l-13.75-20H36.347V335.956z"/></g><g><path d="M390.098,285.956H26.347c-5.523,0-10-4.478-10-10v-180c0-5.523,4.477-10,10-10h460c3.714,0,7.121,2.058,8.851,5.345       c1.729,3.287,1.494,7.26-0.61,10.32l-27.5,40c-1.865,2.714-4.947,4.335-8.24,4.335h-242.5v10h221.875       c3.714,0,7.121,2.058,8.851,5.345c1.729,3.287,1.494,7.26-0.61,10.32l-27.5,40c-1.865,2.714-4.947,4.335-8.24,4.335H216.347v10       h173.75c3.714,0,7.121,2.058,8.851,5.345c1.729,3.287,1.494,7.26-0.61,10.32l-9.854,14.335l9.854,14.334       c2.104,3.06,2.339,7.034,0.61,10.32C397.219,283.898,393.812,285.956,390.098,285.956z M36.347,265.956h334.74l-2.979-4.334       c-2.347-3.413-2.347-7.918,0-11.331l2.979-4.335h-164.74c-5.523,0-10-4.477-10-10v-30c0-5.523,4.477-10,10-10h199.115l13.75-20       H206.347c-5.523,0-10-4.477-10-10v-30c0-5.523,4.477-10,10-10h247.24l13.75-20H36.347V265.956z"/></g><g><path d="M438.223,175.957H206.347c-5.523,0-10-4.477-10-10v-30c0-5.523,4.477-10,10-10h252.5c3.714,0,7.121,2.058,8.851,5.345       c1.729,3.287,1.494,7.26-0.61,10.32l-20.625,30C444.598,174.335,441.516,175.957,438.223,175.957z M216.347,155.957h216.615       l6.875-10h-223.49V155.957z"/></g><g><path d="M390.098,245.957h-183.75c-5.523,0-10-4.477-10-10v-30c0-5.523,4.477-10,10-10h204.375       c3.714,0,7.121,2.058,8.851,5.345c1.729,3.287,1.494,7.26-0.61,10.321l-20.625,30       C396.473,244.335,393.391,245.957,390.098,245.957z M216.347,225.957h168.49l6.875-10H216.347V225.957z"/></g><g><path d="M410.723,315.956H26.347c-5.523,0-10-4.478-10-10v-30c0-5.522,4.477-10,10-10h363.75c3.293,0,6.375,1.621,8.24,4.335       l20.625,30c2.104,3.06,2.339,7.034,0.61,10.32C417.844,313.898,414.437,315.956,410.723,315.956z M36.347,295.956h355.365       l-6.875-10H36.347V295.956z"/></g><g><path d="M458.848,385.956h-432.5c-5.523,0-10-4.478-10-10v-30c0-5.522,4.477-10,10-10h411.875c3.293,0,6.375,1.621,8.24,4.335       l20.625,30c2.104,3.06,2.339,7.034,0.61,10.32C465.969,383.898,462.562,385.956,458.848,385.956z M36.347,365.956h403.49       l-6.875-10H36.347V365.956z"/></g></g></g></g></g><g id="Layer_1"/></svg>