<?xml version="1.0" encoding="iso-8859-1"?>
<!-- Uploaded to: SVG Repo, www.svgrepo.com, Generator: SVG Repo Mixer Tools -->
<svg fill="#000000" height="800px" width="800px" version="1.1" id="Layer_1" xmlns="http://www.w3.org/2000/svg" xmlns:xlink="http://www.w3.org/1999/xlink" 
	 viewBox="0 0 503.607 503.607" xml:space="preserve">
<g transform="translate(1 1)">
	<g>
		<g>
			<path d="M93.976,66.148v16.787v33.574h-25.18c-14.269,0-25.18,10.911-25.18,25.18v50.361v251.803v33.574
				c0,14.269,10.911,25.18,25.18,25.18h201.443c14.269,0,25.18-10.911,25.18-25.18v-33.574V192.049v-50.361
				c0-14.269-10.911-25.18-25.18-25.18h-25.18V82.934v-8.393c0-6.715,2.518-13.43,7.554-18.466
				c4.197-4.197,10.072-6.715,15.948-6.715h60.433V-1H161.123C124.192-1,93.976,29.216,93.976,66.148z M161.123,317.951
				c0,57.915-44.485,104.918-100.721,109.115v-217.39C116.638,213.872,161.123,260.036,161.123,317.951z M177.91,317.951
				c0-46.711-25.284-87.383-62.946-109.115h163.667v218.229H114.964C152.626,405.333,177.91,364.662,177.91,317.951z
				 M278.631,477.426c0,5.036-3.357,8.393-8.393,8.393H68.795c-5.036,0-8.393-3.357-8.393-8.393v-33.574h218.229V477.426z
				 M270.238,133.295c5.036,0,8.393,3.357,8.393,8.393v50.361H60.402v-50.361c0-5.036,3.357-8.393,8.393-8.393h25.18h151.082
				H270.238z M110.762,116.508V82.934h117.508v33.574H110.762z M312.205,32.574h-43.646c-10.072,0-20.144,4.197-27.698,11.751
				c-6.715,5.875-10.072,13.43-11.751,21.823H110.762c0-27.698,22.662-50.361,50.361-50.361h151.082V32.574z"/>
			<path d="M441.464,35.931c-31.895-23.502-78.059-20.144-79.738-20.144c-3.357,0-6.715,2.518-7.554,5.875
				c-0.839,3.357,0,6.715,3.357,9.233c13.43,10.911,19.305,29.377,20.984,42.807c2.518,20.144,19.305,34.413,39.449,34.413
				c17.626,0,32.734-10.911,37.771-27.698C461.608,63.629,455.733,46.003,441.464,35.931z M438.946,76.22
				c-2.518,7.554-9.233,15.948-21.823,15.948c-11.751,0-20.984-8.393-22.662-20.144c-1.679-15.108-6.715-28.538-13.43-38.61
				c15.108,0.839,35.252,5.036,49.521,16.787C440.625,57.754,441.464,68.666,438.946,76.22z"/>
		</g>
	</g>
</g>
</svg>