<?xml version="1.0" encoding="iso-8859-1"?>
<!-- Generator: Adobe Illustrator 19.0.0, SVG Export Plug-In . SVG Version: 6.00 Build 0)  -->
<svg version="1.1" id="Layer_1" xmlns="http://www.w3.org/2000/svg" xmlns:xlink="http://www.w3.org/1999/xlink" x="0px" y="0px"
	 viewBox="0 0 512 512" style="enable-background:new 0 0 512 512;" xml:space="preserve">
<g>
	<g>
		<path d="M501.801,124.94c-5.633,0-10.199,4.567-10.199,10.199v61.195H175.359v-11.41c0-24.64-20.047-44.686-44.686-44.686H72.156
			c-24.64,0-44.686,20.045-44.686,44.686v11.41h-7.072v-61.195c0-5.632-4.566-10.199-10.199-10.199
			C4.566,124.94,0,129.507,0,135.139v241.721c0,5.632,4.566,10.199,10.199,10.199c5.633,0,10.199-4.567,10.199-10.199v-84.653
			h471.203v84.653c0,5.632,4.566,10.199,10.199,10.199c5.633,0,10.199-4.567,10.199-10.199V135.139
			C512,129.507,507.434,124.94,501.801,124.94z M47.868,184.925h0.001c0-13.393,10.896-24.287,24.287-24.287h58.516
			c13.393,0,24.287,10.896,24.287,24.287v11.41H47.868V184.925z M20.398,271.809v-55.076h156.277L121.6,271.809H20.398z
			 M491.602,271.809H150.448l55.076-55.076h286.077V271.809z"/>
	</g>
</g>
<g>
	<g>
		<path d="M299.789,242.231H284.49c-5.633,0-10.199,4.567-10.199,10.199s4.566,10.199,10.199,10.199h15.299
			c5.633,0,10.199-4.567,10.199-10.199S305.422,242.231,299.789,242.231z"/>
	</g>
</g>
<g>
	<g>
		<path d="M471.136,242.231h-128.51c-5.633,0-10.199,4.567-10.199,10.199s4.566,10.199,10.199,10.199h128.51
			c5.633,0,10.199-4.567,10.199-10.199S476.769,242.231,471.136,242.231z"/>
	</g>
</g>
<g>
</g>
<g>
</g>
<g>
</g>
<g>
</g>
<g>
</g>
<g>
</g>
<g>
</g>
<g>
</g>
<g>
</g>
<g>
</g>
<g>
</g>
<g>
</g>
<g>
</g>
<g>
</g>
<g>
</g>
</svg>
