<?xml version="1.0" encoding="iso-8859-1"?>
<!-- Generator: Adobe Illustrator 19.0.0, SVG Export Plug-In . SVG Version: 6.00 Build 0)  -->
<svg version="1.1" id="Capa_1" xmlns="http://www.w3.org/2000/svg" xmlns:xlink="http://www.w3.org/1999/xlink" x="0px" y="0px"
	 viewBox="0 0 512.001 512.001" style="enable-background:new 0 0 512.001 512.001;" xml:space="preserve">
<g>
	<g>
		<path d="M485.468,64.547H132.639c-4.199,0-7.604,3.404-7.604,7.604s3.405,7.604,7.604,7.604h352.828
			c6.244,0,11.325,5.081,11.325,11.326v329.84c0,6.244-5.08,11.325-11.325,11.325H26.533c-6.244,0-11.325-5.08-11.325-11.325V91.081
			c0-6.244,5.08-11.326,11.325-11.326h31.395c4.199,0,7.604-3.404,7.604-7.604s-3.405-7.604-7.604-7.604H26.533
			C11.903,64.547,0,76.45,0,91.081v329.84c0,14.63,11.903,26.533,26.533,26.533h458.935c14.63,0,26.533-11.903,26.533-26.533V91.081
			C512,76.45,500.097,64.547,485.468,64.547z"/>
	</g>
</g>
<g>
	<g>
		<path d="M452.355,369.386H277.368c-5.087-6.835-13.224-11.272-22.379-11.272c-9.155,0-17.293,4.437-22.379,11.272h-62.974
			c-4.199,0-7.604,3.404-7.604,7.604s3.405,7.604,7.604,7.604h57.507c-0.023,0.464-0.036,0.931-0.036,1.401
			c0,1.952,0.204,3.857,0.587,5.696H63.201v-7.097h33.468c4.199,0,7.604-3.404,7.604-7.604s-3.405-7.604-7.604-7.604H55.597
			c-4.199,0-7.604,3.404-7.604,7.604v22.305c0,4.2,3.405,7.604,7.604,7.604h179.116c0.566,0,1.115-0.066,1.645-0.184
			c4.942,4.448,11.475,7.161,18.632,7.161c7.055,0,13.504-2.64,18.42-6.977h178.945c4.2,0,7.604-3.404,7.604-7.604V376.99
			C459.958,372.789,456.555,369.386,452.355,369.386z M254.989,398.668c-6.989,0-12.673-5.685-12.673-12.673
			c0-6.989,5.686-12.673,12.673-12.673c6.989,0,12.673,5.685,12.673,12.673C267.662,392.983,261.978,398.668,254.989,398.668z
			 M282.283,391.691c0.383-1.839,0.587-3.744,0.587-5.696c0-0.469-0.012-0.937-0.036-1.401H444.75v7.097H282.283z"/>
	</g>
</g>
<g>
	<g>
		<path d="M464.521,93.615c-10.901,0-19.77,8.869-19.77,19.77s8.869,19.77,19.77,19.77s19.77-8.869,19.77-19.77
			C484.291,102.485,475.422,93.615,464.521,93.615z M464.521,117.948c-2.515,0-4.562-2.047-4.562-4.562s2.047-4.562,4.562-4.562
			s4.562,2.047,4.562,4.562S467.036,117.948,464.521,117.948z"/>
	</g>
</g>
<g>
	<g>
		<path d="M413.142,93.615c-10.901,0-19.77,8.869-19.77,19.77s8.869,19.77,19.77,19.77s19.77-8.869,19.77-19.77
			C432.913,102.485,424.043,93.615,413.142,93.615z M413.142,117.948c-2.515,0-4.562-2.047-4.562-4.562s2.047-4.562,4.562-4.562
			s4.562,2.047,4.562,4.562C417.705,115.901,415.658,117.948,413.142,117.948z"/>
	</g>
</g>
<g>
	<g>
		<path d="M307.302,222.978L228.2,160.79c-2.852-2.242-6.65-2.648-9.913-1.065c-3.262,1.585-5.288,4.824-5.288,8.451v124.378
			c0,3.628,2.027,6.865,5.289,8.451c1.318,0.641,2.724,0.956,4.12,0.956c2.057,0,4.093-0.685,5.791-2.02l79.101-62.189
			c2.28-1.793,3.588-4.483,3.589-7.383C310.891,227.468,309.585,224.775,307.302,222.978z M228.206,280.589v-100.45l63.884,50.225
			L228.206,280.589z"/>
	</g>
</g>
<g>
</g>
<g>
</g>
<g>
</g>
<g>
</g>
<g>
</g>
<g>
</g>
<g>
</g>
<g>
</g>
<g>
</g>
<g>
</g>
<g>
</g>
<g>
</g>
<g>
</g>
<g>
</g>
<g>
</g>
</svg>
