<?xml version="1.0" encoding="iso-8859-1"?>
<!-- Generator: Adobe Illustrator 19.0.0, SVG Export Plug-In . SVG Version: 6.00 Build 0)  -->
<svg version="1.1" id="Layer_1" xmlns="http://www.w3.org/2000/svg" xmlns:xlink="http://www.w3.org/1999/xlink" x="0px" y="0px"
	 viewBox="0 0 512 512" style="enable-background:new 0 0 512 512;" xml:space="preserve">
<g>
	<g>
		<path d="M507.698,356.148l-46.231-67.712c6.463-1.777,12.008-6.143,15.237-12.256c4.279-8.104,3.728-17.838-1.44-25.41
			l-29.191-42.756c1.613-1.662,3.006-3.567,4.124-5.682c4.278-8.103,3.728-17.838-1.44-25.41l-37.125-54.376
			c-4.401-6.445-11.689-10.294-19.494-10.294c-7.808,0-15.096,3.85-19.492,10.294l-37.125,54.375
			c-5.168,7.569-5.72,17.306-1.441,25.41c1.118,2.114,2.512,4.02,4.124,5.682l-29.19,42.755c-5.168,7.568-5.72,17.306-1.441,25.411
			c3.228,6.113,8.774,10.48,15.237,12.256l-46.233,67.716c-5.163,7.568-5.714,17.304-1.436,25.407
			c4.28,8.105,12.633,13.139,21.797,13.139h54.448v61.099H196.712V398.04l29.369-22.693c7.03-5.431,8.325-15.533,2.894-22.563
			c-5.432-7.03-15.533-8.325-22.563-2.894l-9.699,7.494v-27.002c41.876,4.611,78.429-28.407,78.429-70.36
			c0-0.357-0.003-0.713-0.009-1.07c23.9-11.687,39.661-36.173,39.661-63.605c0-27.633-15.788-52.063-39.809-63.684
			c2.759-41.487-30.844-76.493-72.407-75.458c-6.491-18.707-24.292-32.173-45.181-32.173s-38.689,13.466-45.18,32.173
			c-0.589-0.014-1.177-0.022-1.766-0.022c-40.859,0-73.356,34.68-70.641,75.48C15.787,143.286,0,167.715,0,195.348
			c0,27.432,15.76,51.919,39.661,63.605c-0.689,42.659,36.653,76.495,79.175,71.341v125.503H54.835
			c-8.884,0-16.085,7.202-16.085,16.085c0,8.884,7.202,16.085,16.085,16.085c26.097,0,410.996,0,422.862,0
			c8.884,0,16.085-7.202,16.085-16.085c0-8.884-7.202-16.085-16.085-16.085h-44.805v-61.099h54.448
			c9.166,0,17.518-5.034,21.795-13.135C513.417,373.457,512.868,363.718,507.698,356.148z M164.541,455.796h-13.534V317.961
			c0.913-0.638,1.812-1.297,2.695-1.977c1.756-0.515,3.487-1.103,5.194-1.758c1.813,1.514,3.695,2.94,5.644,4.266V455.796z
			 M171.191,279.848c-6.243-10.408-21.353-10.397-27.589,0c-7.062,11.772-19.455,18.8-33.153,18.8
			c-24.429,0-43.031-22.614-37.724-46.914c1.842-8.44-3.313-16.829-11.674-18.999c-17.005-4.415-28.88-19.789-28.88-37.387
			c0-17.897,12.133-33.331,29.506-37.532c8.9-2.153,14.212-11.301,11.673-20.097c-8.437-29.215,18.734-56.34,47.938-47.82
			c10.818,3.157,21.455-5.527,20.538-16.751c-0.042-0.517-0.063-0.945-0.063-1.311c0-8.62,7.013-15.634,15.634-15.634
			c8.997,0,16.332,7.669,15.572,16.935c-0.927,11.235,9.721,19.917,20.536,16.762c29.246-8.535,56.361,18.654,47.94,47.819
			c-2.541,8.797,2.773,17.945,11.673,20.097c17.373,4.201,29.506,19.636,29.506,37.532c0,17.598-11.876,32.973-28.88,37.387
			c-8.362,2.171-13.516,10.559-11.674,18.999c0.598,2.739,0.901,5.529,0.901,8.289c0,21.299-17.327,38.626-38.626,38.626
			C190.645,298.649,178.252,291.621,171.191,279.848z M400.721,455.796h-17.166v-61.099h17.166V455.796z M311.176,362.526
			l54.773-80.224c3.364-4.926,3.725-11.308,0.94-16.582c-2.785-5.273-8.259-8.574-14.224-8.574h-9.055l33.244-48.693
			c3.364-4.926,3.725-11.308,0.94-16.582c-1.841-3.487-4.859-6.112-8.417-7.49l22.761-33.336l22.762,33.336
			c-3.558,1.378-6.576,4.003-8.417,7.49c-2.786,5.274-2.424,11.656,0.94,16.582l33.245,48.693h-9.056
			c-5.964,0-11.439,3.299-14.224,8.574c-2.786,5.274-2.424,11.656,0.94,16.582l54.773,80.224
			C456.052,362.526,327.883,362.526,311.176,362.526z"/>
	</g>
</g>
<g>
</g>
<g>
</g>
<g>
</g>
<g>
</g>
<g>
</g>
<g>
</g>
<g>
</g>
<g>
</g>
<g>
</g>
<g>
</g>
<g>
</g>
<g>
</g>
<g>
</g>
<g>
</g>
<g>
</g>
</svg>
