<?xml version="1.0" encoding="utf-8"?>

<!-- Uploaded to: SVG Repo, www.svgrepo.com, Generator: SVG Repo Mixer Tools -->
<svg version="1.1" id="Icons" xmlns="http://www.w3.org/2000/svg" xmlns:xlink="http://www.w3.org/1999/xlink" 
	 viewBox="0 0 32 32" xml:space="preserve">
<style type="text/css">
	.st0{fill:none;stroke:#000000;stroke-width:2;stroke-linecap:round;stroke-linejoin:round;stroke-miterlimit:10;}
	.st1{fill:none;stroke:#000000;stroke-width:2;stroke-linejoin:round;stroke-miterlimit:10;}
</style>
<path class="st0" d="M24,22H6c-0.6,0-1,0.4-1,1v5c0,0.6,0.4,1,1,1h18c0.6,0,1-0.4,1-1v-5C25,22.4,24.6,22,24,22z"/>
<path class="st0" d="M10,22H6v-2c0-0.6,0.4-1,1-1h2c0.6,0,1,0.4,1,1V22z"/>
<path class="st0" d="M25,15H14c-0.6,0-1,0.4-1,1v5c0,0.6,0.4,1,1,1h11c0.6,0,1-0.4,1-1v-5C26,15.4,25.6,15,25,15z"/>
<path class="st0" d="M25,15h-4v-2c0-0.6,0.4-1,1-1h2c0.6,0,1,0.4,1,1V15z"/>
<path class="st0" d="M17,8H6C5.4,8,5,8.4,5,9v5c0,0.6,0.4,1,1,1h11c0.6,0,1-0.4,1-1V9C18,8.4,17.6,8,17,8z"/>
<path class="st0" d="M10,8H6V6c0-0.6,0.4-1,1-1h2c0.6,0,1,0.4,1,1V8z"/>
<path class="st0" d="M17,8h-4V6c0-0.6,0.4-1,1-1h2c0.6,0,1,0.4,1,1V8z"/>
</svg>