<?xml version="1.0" encoding="iso-8859-1"?>
<!-- Generator: Adobe Illustrator 18.0.0, SVG Export Plug-In . SVG Version: 6.00 Build 0)  -->
<!DOCTYPE svg PUBLIC "-//W3C//DTD SVG 1.1//EN" "http://www.w3.org/Graphics/SVG/1.1/DTD/svg11.dtd">
<svg version="1.1" id="Capa_1" xmlns="http://www.w3.org/2000/svg" xmlns:xlink="http://www.w3.org/1999/xlink" x="0px" y="0px"
	 viewBox="0 0 289.207 289.207" style="enable-background:new 0 0 289.207 289.207;" xml:space="preserve">
<g>
	<path d="M284.292,43.708c-5.091-3.419-11.99-2.064-15.411,3.028l-30.569,45.519c-3.355-1.676-7.137-2.623-11.143-2.623h-16.658
		c-3.985,0-7.75,0.938-11.094,2.598l-30.551-45.493c-3.421-5.094-10.319-6.447-15.411-3.028c-5.092,3.42-6.447,10.319-3.028,15.411
		l35.277,52.53c-0.26,2.195-0.148,148.04-0.148,148.04c0,7.667,6.215,13.882,13.882,13.882c7.667,0,13.882-6.215,13.882-13.882
		v-62.471h11.106v62.471c0,7.667,6.215,13.882,13.882,13.882c7.667,0,13.882-6.215,13.882-13.882
		c0-53.649,0.068-145.573-0.204-147.956l35.334-52.614C290.739,54.027,289.384,47.128,284.292,43.708z"/>
	<path d="M218.873,81.873c14.696,0,26.615-11.908,26.615-26.614c0-9.339-4.824-17.553-12.113-22.301
		c1.443-0.963,3.088-1.855,4.998-2.631c0.909-0.369,1.521-1.231,1.567-2.211c0.047-0.98-0.481-1.897-1.352-2.35
		c-4.209-2.186-9.338-2.231-14.178-1.303c0.821-1.538,1.855-3.109,3.183-4.702c0.628-0.754,0.761-1.804,0.34-2.689
		c-0.421-0.886-1.319-1.446-2.3-1.436c-9.727,0.111-18.649,9.972-22.203,15.869c-0.633,1.05-1.142,2.147-1.524,3.26
		c-5.893,4.882-9.648,12.251-9.648,20.493C192.259,69.965,204.178,81.873,218.873,81.873z"/>
	<path d="M135.752,43.708c-5.091-3.419-11.99-2.064-15.411,3.028l-7.24,10.782c-2.85-1.338-6.023-1.51-9.055,0.123
		c-0.186,0.1-0.357,0.215-0.534,0.323l0.043-0.122c0.763-2.17-0.378-4.547-2.548-5.31c-1.479-0.521-3.04-0.143-4.134,0.827
		c-0.976-13.8-12.483-24.706-26.539-24.706c-14.057,0-25.564,10.906-26.54,24.706c-1.096-0.97-2.657-1.349-4.134-0.827
		c-2.17,0.763-3.311,3.14-2.548,5.31l0.043,0.122c-0.177-0.109-0.349-0.224-0.533-0.323c-3.031-1.633-6.206-1.461-9.056-0.124
		l-7.24-10.781c-3.42-5.094-10.322-6.448-15.411-3.028c-5.092,3.42-6.447,10.319-3.028,15.411l12.711,18.927
		c-0.685,3.51-0.701,7.087,0.48,10.327c0.336,0.922,1.177,1.565,2.154,1.646c0.979,0.081,1.913-0.414,2.396-1.267
		c0.335-0.591,0.681-1.144,1.032-1.678l16.504,24.575c-0.25,2.119-0.182,0.143-0.182,35.685L21.864,208.97
		c-0.705,2.875-0.051,5.915,1.777,8.244c1.826,2.33,4.623,3.69,7.584,3.69h5.791v38.784c0,7.667,6.215,13.882,13.882,13.882
		s13.882-6.215,13.882-13.882v-38.784h11.106v38.784c0,7.667,6.215,13.882,13.882,13.882s13.882-6.215,13.882-13.882v-38.784h5.726
		c2.961,0,5.758-1.36,7.584-3.69c1.828-2.329,2.482-5.369,1.777-8.244l-15.119-61.642h-0.001c0-35.551,0.064-33.537-0.171-35.595
		l16.561-24.661c0.352,0.534,0.697,1.087,1.032,1.678c0.483,0.854,1.418,1.349,2.396,1.267c0.979-0.081,1.819-0.724,2.155-1.646
		c1.181-3.24,1.164-6.817,0.479-10.327l12.711-18.927C142.199,54.027,140.844,47.128,135.752,43.708z M89.773,92.255
		c-3.355-1.676-7.138-2.623-11.144-2.623H61.971c-3.985,0-7.75,0.938-11.093,2.597l-12.056-17.95
		c0.951-0.59,1.696-1.252,2.154-2.103c0.354-0.658,0.633-1.336,0.839-2.025c0.783,0.844,1.885,1.34,3.044,1.34
		c0.458,0,0.925-0.076,1.381-0.237c0.769-0.271,1.401-0.751,1.873-1.347c4.763,7.21,12.936,11.967,22.221,11.967
		c9.285,0,17.458-4.757,22.22-11.967c0.472,0.596,1.104,1.076,1.874,1.347c0.457,0.161,0.923,0.237,1.381,0.237
		c1.159,0,2.261-0.497,3.044-1.34c0.206,0.688,0.484,1.367,0.839,2.025c0.458,0.85,1.203,1.512,2.154,2.102L89.773,92.255z"/>
</g>
<g>
</g>
<g>
</g>
<g>
</g>
<g>
</g>
<g>
</g>
<g>
</g>
<g>
</g>
<g>
</g>
<g>
</g>
<g>
</g>
<g>
</g>
<g>
</g>
<g>
</g>
<g>
</g>
<g>
</g>
</svg>
