<?xml version="1.0" encoding="iso-8859-1"?>
<!-- Generator: Adobe Illustrator 19.0.0, SVG Export Plug-In . SVG Version: 6.00 Build 0)  -->
<svg version="1.1" id="Layer_1" xmlns="http://www.w3.org/2000/svg" xmlns:xlink="http://www.w3.org/1999/xlink" x="0px" y="0px"
	 viewBox="0 0 512.002 512.002" style="enable-background:new 0 0 512.002 512.002;" xml:space="preserve">
<g>
	<g>
		<path d="M273.754,187.249l-30.775-34.82c-2.054-2.325-5.604-2.544-7.93-0.49c-2.324,2.055-2.544,5.606-0.489,7.93l24.438,27.65
			l-46.909-15.345c-2.475-0.81-5.138,0.54-5.948,3.016l-7.207,22.03c14.278-0.822,28.399,6.561,35.496,20.042
			c9.682,18.394,2.619,41.157-15.776,50.84l-10.576,5.566l31.945,10.449c2.475,0.81,5.138-0.54,5.948-3.016l28.912-88.387
			l-0.021-0.007C275.459,190.878,275.12,188.795,273.754,187.249z"/>
	</g>
</g>
<g>
	<g>
		<circle cx="94.189" cy="132.954" r="44.94"/>
	</g>
</g>
<g>
	<g>
		<path d="M219.14,225.31c-5.237-9.95-17.55-13.773-27.501-8.535l-53.213,28.008c-7.767-3.791-61.718-30.123-70.428-34.375
			l48.642,10.956c-2.979-16.063-16.94-27.762-33.28-27.879l-31.364-0.225c-18.959-0.136-34.392,15.239-34.34,34.188
			c0.298,112.95,0.385,118.572,0.794,126.539c0.106,15.341,5.247,22.556,16.533,26.303l9.346,3.103H24.432
			C10.938,383.397,0,394.336,0,407.829c0,13.493,10.938,24.432,24.432,24.432h126.927c15.567,0,28.67-11.154,31.156-26.521
			c2.485-15.368-6.434-30.085-21.211-34.992l-46.103-15.309l0.853-54.168l-54.965-48.922c33.066,16.138,36.153,17.645,68.52,33.442
			c5.681,2.861,12.612,3.012,18.649-0.165l62.348-32.817C220.557,247.573,224.378,235.26,219.14,225.31z"/>
	</g>
</g>
<g>
	<g>
		<path d="M495.898,400.056h-13.114c9.667-3.21,4.691-1.557,6.201-2.061c10.014-3.355,11.062-10.994,11.159-20.584l0.219-80.132
			c0.033-11.818-9.169-21.87-21.366-22.478c-0.369-0.018-12.985-0.578-27.284,0.807c-10.79,1.045-17.118,12.059-16.959,22.111
			l0.362,22.964l27.846-28.267l-26.793,44.158c0,0-31.146,2.712-39.481,3.438c-7.427,0.647-12.851,7.207-12.203,14.532
			c0.646,7.431,7.228,12.841,14.532,12.204c0.001,0,46.307-4.031,46.308-4.033c3.844-0.274,7.985-2.544,10.347-6.546l26.07-42.969
			l-13.921,49.883c-1.001,3.586-1.611,8.464-4.789,9.598l-57.338,19.038c-9.734,3.231-15.618,12.927-13.979,23.066
			c1.625,10.022,10.223,17.475,20.533,17.475H495.9c8.893,0,16.102-7.21,16.102-16.103C512,407.265,504.79,400.056,495.898,400.056z
			"/>
	</g>
</g>
<g>
	<g>
		<path d="M479.39,162.326c-4.25-4.231-10.017-6.589-16.015-6.546l-20.67,0.148c-5.993,0.043-11.721,2.477-15.91,6.764
			c-4.19,4.285-6.492,10.067-6.398,16.06l0.594,37.747c6.43-17.009,22.741-29.025,41.934-29.025c8.145,0,16.109,2.252,23.039,6.422
			l0.043-15.584C486.023,172.314,483.641,166.558,479.39,162.326z"/>
	</g>
</g>
<g>
	<g>
		<circle cx="448.531" cy="113.281" r="33.54"/>
	</g>
</g>
<g>
	<g>
		<circle cx="360.376" cy="187.246" r="33.54"/>
	</g>
</g>
<g>
	<g>
		<path d="M437.174,268.906c-3.364-2.359-6.357-5.122-9.01-8.381c-2.755-3.384-4.992-7.154-6.655-11.181l0.21,13.321l-23.92,7.943
			l0.051-18.336c0.017-5.998-2.366-11.754-6.617-15.986c-4.251-4.233-10.017-6.589-16.015-6.546l-20.67,0.148
			c-5.993,0.043-11.72,2.477-15.91,6.764s-6.492,10.068-6.398,16.06l0.362,22.964l27.846-28.267l-26.793,44.158
			c-24.656,2.147-15.8,1.376-39.482,3.438c-6.986,0.609-12.254,6.467-12.255,13.351c0,7.508,6.09,13.437,13.404,13.436
			c0.975,0,47.465-4.075,47.488-4.084c0.01,0.001,0.019-0.001,0.027-0.002c4.375-0.404,8.17-2.896,10.321-6.545l26.069-42.966
			l-12.83,49.422c-1.001,3.586-2.621,8.801-5.881,10.058c-33.636,11.168-19.591,6.504-57.338,19.038
			c-9.741,3.234-15.619,12.935-13.979,23.058c1.637,10.13,10.273,17.483,20.533,17.483h79.812
			c5.977-5.583,11.529-7.023,16.656-8.726c-6.576,0.573-6.901,0.63-8.366,0.63c-13.463,0-24.496-10.121-25.662-23.524
			c-1.215-13.671,8.336-25.758,21.93-27.732c1.446-0.21,0.652-0.128,3.543-0.38l0.039-14.237c1.124,0.013-5.431,0.009,24.956,0.009
			l-0.243-15.381C422.222,286.83,427.462,275.717,437.174,268.906z"/>
	</g>
</g>
<g>
	<g>
		<path d="M496.041,227.189c-2.535-16.594-16.828-28.48-33.114-28.48c-20.663,0-36.287,18.382-33.197,38.609
			c2.535,16.595,16.828,28.48,33.114,28.48C483.505,265.798,499.129,247.416,496.041,227.189z"/>
	</g>
</g>
<g>
</g>
<g>
</g>
<g>
</g>
<g>
</g>
<g>
</g>
<g>
</g>
<g>
</g>
<g>
</g>
<g>
</g>
<g>
</g>
<g>
</g>
<g>
</g>
<g>
</g>
<g>
</g>
<g>
</g>
</svg>
